<?xml version="1.0" encoding="utf-8"?>
<!-- Generator: Adobe Illustrator 22.1.0, SVG Export Plug-In . SVG Version: 6.00 Build 0)  -->
<svg version="1.1" id="Layer_1" xmlns="http://www.w3.org/2000/svg" xmlns:xlink="http://www.w3.org/1999/xlink" x="0px" y="0px"
	 viewBox="0 0 81.1 117.9" enable-background="new 0 0 81.1 117.9" xml:space="preserve">
<g>
	<path fill="#F2F6F9" d="M75.1,117.9H6c-3.3,0-6-2.7-6-6V6c0-3.3,2.7-6,6-6h69.1c3.3,0,6,2.7,6,6v105.9
		C81.1,115.3,78.4,117.9,75.1,117.9z"/>
	<g>
		<g>
			<path fill="#EA1B4C" d="M7.4,26.6c-0.8,0.8-0.8,2,0,2.8l2.8,2.8l0-5.5C9.4,25.8,8.2,25.8,7.4,26.6z"/>
		</g>
		<g>
			<path fill="#DB093B" d="M13,26.6c-0.8-0.8-2-0.8-2.8,0l0,5.5l2.8-2.8C13.7,28.6,13.7,27.3,13,26.6z"/>
		</g>
	</g>
	<g>
		<g>
			<g>
				<path fill="#EA1B4C" d="M73.6,91.4c0.8-0.8,0.8-2,0-2.8l-2.8-2.8l0,5.5C71.6,92.1,72.9,92.1,73.6,91.4z"/>
			</g>
		</g>
		<g>
			<g>
				<path fill="#DB093B" d="M68.1,91.4c0.8,0.8,2,0.8,2.8,0l0-5.5l-2.8,2.8C67.3,89.4,67.3,90.6,68.1,91.4z"/>
			</g>
		</g>
	</g>
	<path id="Line_46_" fill="#DB093B" d="M36.9,28.5c0,0.4,0,0.4,0,0.7c0,0.3-0.2,0.5-0.5,0.5c-0.3,0-0.5-0.2-0.5-0.5
		c0-0.4,0-0.4,0-0.7c0-0.3,0.2-0.5,0.5-0.5C36.6,28,36.9,28.2,36.9,28.5z M44.1,58.1c-0.2,0.2-0.2,0.5,0,0.7c0.2,0.2,0.5,0.2,0.7,0
		c0.2-0.2,0.2-0.5,0-0.7C44.6,57.9,44.3,57.9,44.1,58.1z M42.2,52.6c0.2,0.2,0.5,0.3,0.7,0.1c0.2-0.2,0.3-0.5,0.1-0.7
		c-0.2-0.2-0.5-0.3-0.7-0.1C42.1,52.1,42.1,52.4,42.2,52.6z M37.7,48c-0.3-0.1-0.5,0-0.6,0.3c-0.1,0.3,0,0.5,0.3,0.6
		c0.3,0.1,0.5,0,0.6-0.3C38.1,48.4,38,48.1,37.7,48z M34.4,47.5c-0.3,0-0.5,0.2-0.5,0.5c0,0.3,0.2,0.5,0.5,0.5
		c0.3,0,0.5-0.2,0.5-0.5C34.9,47.7,34.6,47.5,34.4,47.5z M40,49.7c-0.2,0.2-0.1,0.5,0.1,0.7c0.2,0.2,0.5,0.1,0.7-0.1
		c0.2-0.2,0.1-0.5-0.1-0.7C40.5,49.5,40.2,49.5,40,49.7z M44.1,55.7c0.3-0.1,0.4-0.3,0.3-0.6c-0.1-0.3-0.3-0.4-0.6-0.3
		c-0.3,0.1-0.4,0.3-0.3,0.6C43.6,55.6,43.9,55.8,44.1,55.7z M31.4,48.6c-0.3,0-0.5,0.2-0.5,0.5c0,0.3,0.2,0.5,0.5,0.5
		c0.3,0,0.5-0.2,0.5-0.5C31.9,48.8,31.7,48.6,31.4,48.6z M44.7,90c0.3,0,0.5-0.2,0.5-0.5c0-0.4,0-0.4,0-0.7c0-0.3-0.2-0.5-0.5-0.5
		c-0.3,0-0.5,0.2-0.5,0.5c0,0.4,0,0.4,0,0.7C44.2,89.7,44.4,90,44.7,90z M37,59.8c0.2-0.2,0.2-0.5,0-0.7c-0.2-0.2-0.5-0.2-0.7,0
		c-0.2,0.2-0.2,0.5,0,0.7C36.5,60,36.8,60,37,59.8z M43.4,69.9c0.3,0.1,0.5,0,0.6-0.3c0.1-0.3,0-0.5-0.3-0.6c-0.3-0.1-0.5,0-0.6,0.3
		C43,69.6,43.1,69.8,43.4,69.9z M46.7,70.4c0.3,0,0.5-0.2,0.5-0.5c0-0.3-0.2-0.5-0.5-0.5c-0.3,0-0.5,0.2-0.5,0.5
		C46.2,70.2,46.5,70.4,46.7,70.4z M37,62.2c-0.3,0.1-0.4,0.3-0.3,0.6c0.1,0.3,0.3,0.4,0.6,0.3c0.3-0.1,0.4-0.3,0.3-0.6
		C37.5,62.3,37.2,62.2,37,62.2z M41.1,68.2c0.2-0.2,0.1-0.5-0.1-0.7c-0.2-0.2-0.5-0.1-0.7,0.1s-0.1,0.5,0.1,0.7
		C40.6,68.5,40.9,68.4,41.1,68.2z M38.7,66c0.2-0.2,0.3-0.5,0.1-0.7c-0.2-0.2-0.5-0.3-0.7-0.1c-0.2,0.2-0.3,0.5-0.1,0.7
		C38.2,66.1,38.5,66.2,38.7,66z M49.7,69.4c0.3,0,0.5-0.2,0.5-0.5c0-0.3-0.2-0.5-0.5-0.5c-0.3,0-0.5,0.2-0.5,0.5
		C49.2,69.2,49.4,69.4,49.7,69.4z M65.2,85.2c-0.8,1.6-1.8,2.9-3.2,4.2l-0.7-0.1l-2-3.1l0.2-0.7c0.7-0.3,1.2-1,1.2-1.9
		c0-1.2-1-2.1-2.1-2.1v3.5l-0.5,0.5h-2.9l-0.5-0.5v-3.3c-0.9,0.3-1.3,0.9-1.8,1.7l-0.7,0.1c-0.3-0.2-0.5-0.6-0.5-1
		c0-0.7,0.6-1.2-1.2-2.5c-0.3-0.2-0.3-0.6,0-0.8c0.5-0.4,0.8-0.7,1-0.9c0.2-0.3,0.2-0.6,0.1-0.9c0-0.4-0.1-0.7,0.1-1
		c0.1-0.2,0.3-0.4,0.5-0.6L53,76c0.5,0.8,0.9,1.3,1.8,1.7v-5.8c-2.3,3.8-5.6,6.6-10.1,7.4c0.8,0,1.9,0.1,2.4,0.7
		c0.6,0.8,0,2,0.5,2.4c0.3,0.2,0.3,0.6,0,0.8c0.2,0,0.6,0.2,0.7,0.3l0.1,0.1l0.1,0.1c0.1,0.2,0.1,0.4-0.1,0.6
		c-0.1,0.1-0.2,0.1-0.3,0.2c-0.2,0.2-0.3,0.6-0.3,1l0.9,0.3l0.3,0.7c-0.3,0.5-0.7,0.9-0.9,1.4c-0.3,0.5-0.7,1.3-0.7,1.8
		c0,0.7,0.7,1.4,0.3,2.8c-0.2,0.5-0.5,1.1-0.7,1.5c0.4,0.4,0.5,1,0.3,1.5l0.5,0.4l0.4,4.8c-0.4,0.6-0.3,0.5-0.3,0.5
		c-6.7,2.4-12.8-0.1-16.1-5.6l0.1-0.6l2.8-3c-0.8-1.3-1.2-2.9-1.2-4.4c-1.2,0.1-2.3-0.6-2.3-1.8c0-0.9,0.3-1.7,1.1-2.2
		c-0.6-0.7-1.1-1.4-1.6-2c-4.9-2.3-9-5.9-8.2-11.3V58c-1.1-0.2-2-0.7-2-1.9c0-0.2,0-0.5,0.1-0.7c-0.5-0.6-0.6-1.4-0.2-1.9
		c-0.3-0.6-0.3-1.2,0.1-1.7c-0.4-0.9,0.2-2.1,2-2.3v-9.4c-0.4,0-1,0.2-1.5,0.6c-1,1-0.7,2.8,0.6,3.3l0,0.6l0.2,0.1l-2,3.1L19,47.8
		c-1.3-1.3-2.4-2.6-3.2-4.2c-1.6-3.3-1.6-7.6,0-10.9c0.8-1.6,1.8-2.9,3.2-4.2l0.7,0.1l2,3.1l-0.3,0.2l0.1,0.5
		c-1.3,0.6-1.7,2.3-0.6,3.3c0.4,0.4,1,0.6,1.5,0.6v-3.5l0.5-0.5h2.9l0.5,0.5v3.3c0.9-0.3,1.3-0.9,1.8-1.7l0.7-0.1
		c0.2,0.2,0.4,0.4,0.5,0.6c0.5,1-0.7,1.6,1.2,2.9c0.3,0.2,0.3,0.6,0,0.8c-0.5,0.4-1.3,1-1.3,1.7c0,0.5,0.4,1.2-0.4,1.8L28,42
		c-0.5-0.8-0.9-1.3-1.8-1.7v5.8c2.3-3.8,5.6-6.6,10.1-7.4c-1.1,0.1-2.4-0.2-2.7-1.3c-0.2-0.7,0.1-1.5-0.3-1.8
		c-0.3-0.2-0.3-0.6,0-0.8c-0.2,0-0.6-0.2-0.8-0.3c-0.3-0.2-0.2-0.6,0.1-0.8c0.4-0.2,0.5-0.8,0.5-1.2l-0.9-0.3l-0.3-0.7
		c0.7-1,1.3-1.7,1.6-2.7c0.1-0.3,0.1-0.5,0-0.8c-0.2-0.8-0.9-1.8,0.5-3.9c-0.4-0.4-0.5-1-0.3-1.5l-0.5-0.4L33,17.4
		c0.4-0.6,0.3-0.5,0.3-0.5c6.7-2.4,12.8,0.1,16.1,5.6l-0.1,0.6l-2.8,3c0.8,1.3,1.2,2.9,1.2,4.4c1.2-0.1,2.3,0.6,2.3,1.8
		c0,0.9-0.3,1.7-1.1,2.2c0.6,0.7,1.1,1.4,1.6,2c5,2.3,9,5.9,8.2,11.3V60c1.1,0.2,2,0.7,2,1.9c0,0.2,0,0.5-0.1,0.7
		c0.5,0.6,0.6,1.4,0.2,1.9c0.3,0.6,0.3,1.2-0.1,1.7c0.4,0.9-0.2,2.1-2,2.3v9.4c0.4,0,1-0.2,1.5-0.6c1-1,0.7-2.8-0.6-3.3l-0.3-0.4
		l0.1-0.3l2-3.1l0.7-0.1c1.3,1.3,2.4,2.6,3.2,4.2C66.8,77.6,66.8,81.9,65.2,85.2z M26.3,37.7h2.6c-0.3-0.4-0.6-0.9-0.6-1.5
		c0-0.2,0-0.4,0-0.6c-0.6,0.8-1.2,1.2-2.1,1.5V37.7z M26.3,39.3c0.8,0.2,1.4,0.6,1.9,1.2c-0.1-0.7,0.2-1.3,0.7-1.8h-2.6V39.3z
		 M54.8,80.2h-2.6c0.5,0.5,0.7,1.1,0.7,1.8c0.5-0.6,1.1-1,1.9-1.2V80.2z M54.8,78.7c-0.9-0.3-1.5-0.7-2.1-1.5c0,0.2,0,0.4,0,0.6
		c0,0.6-0.2,1-0.6,1.5h2.6V78.7z M51.4,38.1c2.9,6.1,0.7,13.3-2.8,18.9c0.7,0.5,1.2,1,1.7,1.5C58.7,50.9,61.4,43.4,51.4,38.1z
		 M55.8,54v5.8c1.6,0,1.7,0,1.9,0v-9C57.2,52,56.5,53,55.8,54z M46.5,58.4c0-13.3-17.3-16.4-16.9-7.5c0.2,0.4,0.5,0.9,0.6,1.4
		c2.9-4.1,9.3-2.2,11.4,2.5c0.5,1,0.7,2.3,0.7,3.6c0,1.8,2.2,2.8,3.5,1.5C46.3,59.5,46.5,59,46.5,58.4z M44.4,61.5
		c-1.4,0-2.6-1-2.9-2.3l-1.8,0.7c0.1,1.7,0.6,3.1,1.4,4.1c1.4,1.9,3.6,2.9,5.4,2.9c4.1,0,6.7-5.4,1.5-9.1c-0.3,0.4-0.5,0.7-0.6,0.8
		C47.4,60.2,46,61.5,44.4,61.5z M33.1,60.1c0.3-0.4,0.5-0.7,0.6-0.8c0.1-1.6,1.4-2.9,3-2.9c1.4,0,2.6,1,3,2.3l1.8-0.7
		c-0.1-1.7-0.6-3.1-1.4-4.1c-1.4-1.9-3.6-2.9-5.4-2.9C30.5,51.1,27.9,56.5,33.1,60.1z M29.9,58.1h-3.6v4.6c1.1-1.3,2.4-2.6,4-4
		C30.2,58.5,30.1,58.4,29.9,58.1z M34.6,59.5c0,5.6,3.2,9.9,7.7,11.7c1.3,0.5,2.8,0.9,4.3,0.8c0.1,0,0.2,0,0.4,0
		c2.9-0.3,4.8-2,4.6-5c-0.2-0.4-0.5-0.9-0.6-1.4c-1.9,2.7-5.4,2.9-8.3,1c-2.3-1.5-3.8-4-3.8-7.2c0-1.1-0.9-2.1-2.1-2.1
		C35.5,57.4,34.6,58.4,34.6,59.5z M51.2,59.9h3.6v-4.6c-1.1,1.3-2.4,2.6-4,4C50.9,59.4,51,59.5,51.2,59.9z M48.3,35.2
		c-0.4,0.8-1.1,1.2-2.1,1.2c-0.5,0.8-1.3,1.3-2.2,1.3c-0.9,0-1.8-0.2-2.4-0.9c-0.3,3.4-1.9,6.6-4.8,8.2c3.9,0.7,7.6,3.5,9.4,7.5
		c0.6,1.3,1,2.8,1.1,4.4c0.5-0.7,1.1-1.8,1.8-3.1C52.4,47.5,53.1,40.6,48.3,35.2z M43.7,30.7c0,1-0.1,1.5,0,2.4
		c0.4-0.1,0.7-0.2,1.1-0.1c0.3-3.2,0-7-2.5-8.9c-0.4-0.3-0.8-0.6-1.1-0.7C43,25.2,43.7,28.1,43.7,30.7z M36.3,22.5L36.3,22.5
		c-0.2,0-0.2,0-0.3,0c-0.4,0-0.9,0.2-1.1,0.5c-0.1,0.2,0,0.4,0.1,0.5c0.1,0.1,0.3,0.2,0.7,0.3c1.6,0.2,3.1,0.7,4.2,1.9
		c1.2,1.3,1.5,3,1.5,4.8c0,1.3-0.3,4.1,0.8,5.5c0.5,0.6,1.2,0.8,2,0.8c0.5,0,1.1-0.4,1.4-1c0.5-1.2-0.5-2.3-1.6-1.7
		c0.1,0.3,0.2,0.6,0.4,0.7c0.1,0.2,0.1,0.5-0.1,0.7c-0.2,0.1-0.5,0.1-0.7-0.1c-0.7-1.1-0.8-2.5-0.7-3.7c0.1-1.1,0-2.6-0.3-3.9
		C41.6,24.5,39.6,22.5,36.3,22.5z M38.4,42.5c1.1-1.3,2-3.2,2.3-5.8c-0.9,0.8-1.9,1.5-3.1,1.8L38.4,42.5z M47.7,32.3
		c0.5,0.3,0.9,0.7,0.9,1.3c0.4-0.3,0.5-0.8,0.5-1.2c0-0.6-0.8-0.9-1.4-0.8C47.7,32.4,47.6,32.2,47.7,32.3z M45.7,33.3
		c0.7,0.5,1,1.3,0.9,2.1c0.8-0.2,1.1-0.9,1.1-1.6C47.7,33,46.4,32.6,45.7,33.3z M46.5,28.3c-0.3-1.2-0.9-2.3-1.9-3
		c1.1,2,1.3,4.6,1.2,6.8c0.3-0.1,0.6-0.2,0.9-0.1C46.9,31.1,46.9,29.7,46.5,28.3z M43.7,23.5c0.9,0.5,1.7,1.1,2.4,1.7l2.3-2.5
		C47.2,21.4,45.1,22.4,43.7,23.5z M43.6,22.3c1-0.7,2.4-1.3,3.6-1.2c-0.8-1-1.8-1.8-2.9-2.5C44.6,19.8,44.2,21.2,43.6,22.3z
		 M40.1,17.7c-1,0.8-1.3,2.7-1.4,4c0.5,0.1,0.9,0.2,1.3,0.3c0.6,0.1,1.2,0.3,1.7,0.5c0.2,0.1,0.4,0.2,0.6,0.3c0.4-0.6,0.8-1.4,1-2.1
		c0.5-1.5,0.2-2.7-1.3-3.2C41.3,17.3,40.6,17.3,40.1,17.7z M35.9,17.2c1,0.6,1.6,1.8,2,2.9c0.2-1.1,0.7-2.4,1.6-3.1
		C38.3,16.9,37.1,16.9,35.9,17.2z M34.3,21.6c1.1-0.1,2-0.1,2.9-0.1c-0.4-1.8-1.4-4.1-3.3-3.8L34.3,21.6z M40.7,35.3
		c-1-3.1,0.6-6.6-1.6-8.9c-1-1-2.2-1.4-3.6-1.6c-0.2,0-0.3-0.1-0.5-0.1c-0.1,0.1-0.2,0.3-0.2,0.4c-0.1,0.2-0.2,0.7-0.1,0.9
		c0.3,0.6,2.7-0.2,3.8,1.2c0.2,0.2,0.1,0.5-0.1,0.7c-0.2,0.2-0.5,0.1-0.7-0.1c-0.7-0.9-2.4-0.4-3.3-0.8c0.2,0.6,0.6,1.2,0.2,2.2
		c-0.3,1-0.8,1.6-1.3,2.4c1.8,0.5,1.2,0.4,2.3,0.6c0.6,0.2,1.2,0.3,1.6,0.8c0.3,0.4,0.3,1,0,1.4c-0.1,0.2-0.4,0.3-0.7,0.2
		c-0.2-0.1-0.3-0.4-0.2-0.7c0,0,0-0.1,0.1-0.1c0-0.1,0-0.1,0-0.2c-0.2-0.3-1.1-0.4-2.2-0.7c0,0.4-0.1,0.8-0.3,1.1
		c0.3,0.1,0.5,0.1,0.8,0c0.3,0,0.5,0.2,0.5,0.5s-0.2,0.5-0.5,0.5c-0.3,0-0.4,0-0.6,0c0.6,0.5,0.5,1.1,0.5,1.8c0,0.5,0.1,0.7,0.6,0.9
		c0.2,0.1,0.5,0.1,1,0.1C37.5,37.7,39.3,37,40.7,35.3z M26.5,47.6c0.9,0.5,1.5,1.1,2.1,1.9c0.5-3,2.9-4.5,5.8-4.6
		c0.9-0.1,2-0.6,3.1-1.6l-0.8-3.8C32.2,40.4,28.8,43.4,26.5,47.6z M23.4,50.7h1.9c0-10,0-7.8,0-17.3h-1.9V50.7z M22.4,39.1v-0.4H18
		c0,1,0.2,1.8,0.5,2.6c0.1,0.3,0,0.5-0.3,0.6c-0.3,0.1-0.5,0-0.6-0.3c-0.8-2.2-0.7-4.8,0-6.9c0.1-0.3,0.4-0.4,0.6-0.3
		c0.3,0.1,0.4,0.4,0.3,0.6c-0.3,0.8-0.4,1.7-0.5,2.6h4.4v-0.4c-2.4,0-3.8-2.7-2.5-4.7c0.2-0.3,0.5-0.6,0.8-0.8l-1.4-2.1
		c-2.4,2.5-3.6,5-3.6,8.5c0,3.5,1.2,6,3.6,8.5l1.4-2.1c-0.3-0.2-0.6-0.5-0.8-0.8C18.5,41.8,19.9,39.1,22.4,39.1z M23.8,57.1h5.7
		c-0.4-1.3-0.4-2.5,0.1-3.7c-0.6-1.8-1.7-3.8-3.3-4.8v2.5l-0.5,0.5h-2.9l-0.5-0.5v-0.7c-0.4,0.1-0.9,0.2-1.1,0.5
		c-0.2,0.3,0,0.5,0.3,0.7c0.1,0,0.2,0.1,0.4,0.1c0.5,0.1,1.3,0.2,1.9,0.2c0.3,0,0.5,0.2,0.5,0.5c0,0.3-0.2,0.5-0.5,0.5
		c-0.7,0-2.1-0.1-2.8-0.5c0,0.2,0,0.4,0.2,0.6c0.3,0.3,0.7,0.5,1.2,0.6c0.3,0.1,0.7,0.1,1,0.1c0.3,0,0.5,0.2,0.5,0.5
		c0,0.3-0.2,0.5-0.5,0.5c-0.7,0-1.7-0.1-2.3-0.5c0,0.2,0.1,0.3,0.2,0.5c0.4,0.4,1.2,0.7,1.6,0.7c0.3,0,0.5,0.2,0.5,0.5
		c0,0.3-0.2,0.5-0.5,0.5c-0.5,0-1.1-0.2-1.5-0.4c0,0.2,0,0.4,0.1,0.4c0.1,0.2,0.4,0.3,0.6,0.4C22.4,57,23,57.1,23.8,57.1z
		 M23.4,58.1v9c0.5-1.1,1.2-2.2,1.9-3.2v-5.8C23.7,58.1,23.7,58.1,23.4,58.1z M29.7,79.9c-2.9-6.1-0.8-13.2,2.8-18.9
		c-0.7-0.5-1.2-1-1.7-1.5C22.3,67.1,19.7,74.6,29.7,79.9z M32.8,82.7c0.4-0.8,1.2-1.2,2.1-1.2c0.5-0.8,1.3-1.3,2.2-1.3
		c0.9,0,1.8,0.2,2.4,0.9c0.3-3.4,1.9-6.6,4.8-8.2c-3.9-0.7-7.6-3.5-9.4-7.5c-0.6-1.3-1-2.8-1.1-4.4c-0.5,0.7-1.1,1.8-1.8,3.1
		C28.7,70.5,28,77.4,32.8,82.7z M37.4,87.2c0-1,0.1-1.5,0-2.4C37,85,36.7,85,36.3,85c-0.3,3.2,0,7,2.5,8.9c0.4,0.3,0.8,0.6,1.1,0.7
		C38.1,92.8,37.4,89.8,37.4,87.2z M44.8,95.5L44.8,95.5c0.2,0,0.2,0,0.3,0c0.4,0,0.9-0.2,1.1-0.5c0.1-0.2,0-0.4-0.1-0.5
		c-0.1-0.1-0.3-0.2-0.7-0.3c-1.6-0.2-3.1-0.7-4.2-1.9c-1.2-1.3-1.5-3-1.5-4.8c0-1.3,0.3-4.1-0.8-5.5c-0.5-0.6-1.2-0.8-2-0.8
		c-0.5,0-1.1,0.4-1.4,1c-0.5,1.2,0.5,2.3,1.6,1.7c-0.1-0.3-0.2-0.6-0.4-0.7c-0.1-0.2-0.1-0.5,0.1-0.7c0.2-0.1,0.5-0.1,0.7,0.1
		c0.7,1.1,0.8,2.4,0.7,3.7c-0.1,1.1,0,2.6,0.3,3.9C39.5,93.4,41.5,95.5,44.8,95.5z M42.7,75.4c-1.1,1.3-2,3.2-2.3,5.8
		c0.9-0.8,1.9-1.5,3.1-1.8L42.7,75.4z M33.4,85.7c-0.5-0.3-0.9-0.7-0.9-1.3c-0.4,0.3-0.5,0.8-0.5,1.2c0,0.6,0.8,0.9,1.4,0.8
		C33.4,85.6,33.5,85.7,33.4,85.7z M35.4,84.6c-0.7-0.5-1-1.3-0.9-2.1c-0.8,0.2-1.1,0.9-1.1,1.6C33.4,84.9,34.7,85.3,35.4,84.6z
		 M34.6,89.6c0.3,1.2,0.9,2.3,1.9,3c-1.1-2-1.3-4.5-1.2-6.8c-0.3,0.1-0.6,0.2-0.9,0.1C34.2,86.9,34.2,88.3,34.6,89.6z M37.4,94.5
		c-0.9-0.5-1.7-1.1-2.4-1.7l-2.3,2.5C33.9,96.6,36,95.6,37.4,94.5z M37.5,95.6c-1,0.7-2.4,1.3-3.6,1.2c0.8,1,1.8,1.8,2.9,2.5
		C36.4,98.1,36.9,96.7,37.5,95.6z M41,100.2c1-0.8,1.3-2.7,1.4-4c-0.5-0.1-0.9-0.2-1.3-0.3c-0.6-0.1-1.2-0.3-1.7-0.5
		c-0.2-0.1-0.4-0.2-0.6-0.3c-0.4,0.6-0.8,1.4-1,2.1c-0.5,1.5-0.2,2.7,1.3,3.2C39.8,100.7,40.5,100.7,41,100.2z M45.2,100.8
		c-1-0.6-1.6-1.8-2-2.9c-0.2,1.1-0.7,2.4-1.6,3.1C42.8,101.1,43.9,101,45.2,100.8z M46.8,96.3c-1.1,0.1-2,0.1-2.9,0.1
		c0.4,1.8,1.4,4.1,3.3,3.8L46.8,96.3z M40.4,82.7c0.8,2.5,0,4.7,0.6,7c0.4,1.5,1.3,2.5,2.7,3.1c1.1,0.4,1.8,0.4,2.4,0.6
		c0.1-0.1,0.1-0.2,0.2-0.4c0.1-0.2,0.2-0.7,0.1-0.9c-0.3-0.6-2.7,0.2-3.8-1.2c-0.2-0.2-0.1-0.5,0.1-0.7c0.2-0.2,0.5-0.1,0.7,0.1
		c0.7,0.9,2.4,0.4,3.3,0.8c-0.2-0.6-0.6-1.2-0.2-2.2c0.3-1,0.8-1.6,1.3-2.4c-1.8-0.5-1.2-0.4-2.3-0.6c-0.6-0.2-1.2-0.3-1.6-0.8
		c-0.3-0.4-0.3-1,0-1.4c0.1-0.2,0.4-0.3,0.7-0.1c0.2,0.1,0.3,0.4,0.1,0.7c0,0,0,0.1-0.1,0.1c0,0.1,0,0.1,0,0.2
		c0.2,0.3,1.1,0.4,2.2,0.7c0-0.4,0.1-0.8,0.3-1.1C47,84,46.7,84,46.5,84c-0.3,0-0.5-0.2-0.5-0.5c0-0.3,0.2-0.5,0.5-0.5
		c0.3,0,0.4,0,0.6,0c-0.6-0.5-0.5-1.1-0.5-1.8c0-0.5-0.1-0.7-0.6-0.9c-0.2-0.1-0.5-0.1-1-0.1C43.6,80.2,41.8,81,40.4,82.7z
		 M54.6,70.3c-0.9-0.5-1.5-1.1-2.1-1.9c-0.5,2.9-2.8,4.5-5.8,4.6c-0.9,0.1-2,0.6-3.1,1.6l0.8,3.8C48.9,77.6,52.3,74.5,54.6,70.3z
		 M57.7,67.3h-1.9v17.3h1.9V67.3z M58.7,66.8v0.7c0.2,0,0.4-0.1,0.6-0.2c0.6-0.3,0.8-0.7,0.2-1.1c-0.4-0.3-1.8-0.3-2.3-0.3
		c-0.3,0-0.5-0.2-0.5-0.5c0-0.3,0.2-0.5,0.5-0.5c0.7,0,2.1,0.1,2.8,0.5c0.1-0.4-0.2-0.7-0.5-0.9c-0.4-0.3-1.3-0.3-1.8-0.3
		c-0.3,0-0.5-0.2-0.5-0.5s0.2-0.5,0.5-0.5c0.7,0,1.7,0.1,2.3,0.5c0-0.3-0.2-0.6-0.5-0.8c-0.4-0.3-1-0.4-1.3-0.4
		c-0.3,0-0.5-0.2-0.5-0.5c0-0.3,0.2-0.5,0.5-0.5c0.5,0,1.1,0.2,1.5,0.4c0-0.2,0-0.3-0.1-0.4c-0.1-0.2-0.4-0.3-0.6-0.4
		c-0.4-0.1-1-0.3-1.8-0.3h-5.7c0.4,1.3,0.4,2.5-0.1,3.7c0.7,1.8,1.7,3.8,3.3,4.8v-2.5l0.5-0.5h2.9L58.7,66.8z M65.4,79.7
		c0-3.5-1.2-6-3.6-8.5l-1.4,2.1c0.3,0.2,0.6,0.5,0.8,0.8c1.3,2-0.1,4.7-2.5,4.7v0.4h4.4c0-1-0.2-1.8-0.5-2.6c-0.1-0.3,0-0.5,0.3-0.6
		c0.3-0.1,0.5,0,0.6,0.3c0.8,2.2,0.7,4.8,0,6.9c-0.1,0.3-0.4,0.4-0.6,0.3c-0.3-0.1-0.4-0.4-0.3-0.6c0.3-0.8,0.4-1.7,0.5-2.6h-4.4
		v0.4c2.4,0,3.8,2.7,2.5,4.7c-0.2,0.3-0.5,0.6-0.8,0.8l1.4,2.1C64.2,85.8,65.4,83.2,65.4,79.7z"/>
	<g>
		<path fill="#EA1B4C" d="M12.6,5h2v11.4c0,3.2-1.3,5.6-4.4,5.6c-2.7,0-4.4-2-4.4-4.7V16h2v1.3c0,1.8,1,2.7,2.4,2.7
			c1.5,0,2.4-1,2.4-3.1V5z"/>
	</g>
	<g>
		<path fill="#EA1B4C" d="M68.5,112.9h-2v-11.4c0-3.2,1.3-5.6,4.4-5.6c2.7,0,4.4,2,4.4,4.7v1.3h-2v-1.3c0-1.8-1-2.7-2.4-2.7
			c-1.5,0-2.4,1-2.4,3.1V112.9z"/>
	</g>
</g>
</svg>
