<?xml version="1.0" encoding="utf-8"?>
<!-- Generator: Adobe Illustrator 22.1.0, SVG Export Plug-In . SVG Version: 6.00 Build 0)  -->
<svg version="1.1" id="Layer_1" xmlns="http://www.w3.org/2000/svg" xmlns:xlink="http://www.w3.org/1999/xlink" x="0px" y="0px"
	 viewBox="0 0 81.1 117.9" enable-background="new 0 0 81.1 117.9" xml:space="preserve">
<g>
	<path fill="#F2F6F9" d="M75.1,117.9H6c-3.3,0-6-2.7-6-6V6c0-3.3,2.7-6,6-6h69.1c3.3,0,6,2.7,6,6v105.9
		C81.1,115.3,78.4,117.9,75.1,117.9z"/>
	<g>
		<g>
			<path fill="#313132" d="M7.8,28.1c-0.7,0.7-0.7,1.7,0,2.4s1.7,0.7,2.4,0v-4.7L7.8,28.1z"/>
		</g>
		<g>
			<path fill="#1A1818" d="M12.6,28.1l-2.4-2.4v4.7c0.7,0.7,1.7,0.7,2.4,0C13.2,29.8,13.2,28.7,12.6,28.1z"/>
		</g>
		<g>
			<polygon fill="#313132" points="8.5,32.4 10.2,32.4 10.2,31.2 			"/>
		</g>
		<g>
			<polygon fill="#1A1818" points="10.2,31.2 10.2,32.4 11.9,32.4 			"/>
		</g>
	</g>
	<g>
		<g>
			<g>
				<path fill="#313132" d="M73.2,89.9c0.7-0.7,0.7-1.7,0-2.4c-0.7-0.7-1.7-0.7-2.4,0v4.7L73.2,89.9z"/>
			</g>
		</g>
		<g>
			<g>
				<path fill="#1A1818" d="M68.5,89.9l2.4,2.4v-4.7c-0.7-0.7-1.7-0.7-2.4,0C67.9,88.1,67.9,89.2,68.5,89.9z"/>
			</g>
		</g>
		<g>
			<g>
				<polygon fill="#313132" points="72.6,85.5 70.9,85.5 70.9,86.7 				"/>
			</g>
		</g>
		<g>
			<g>
				<polygon fill="#1A1818" points="70.9,86.7 70.9,85.5 69.2,85.5 				"/>
			</g>
		</g>
	</g>
	<g>
		<g id="Color_16_">
			<path fill="#F2F6F9" d="M52.5,52.2c2-5.5,0-10.6-4.3-14.6c-0.7,0.7-2,0.8-2.7-0.1c-0.6,0.7-1.6,0.9-2.5,0.3
				c-0.5,2.9-2.3,3.2-2.6,3.5C46.7,41.4,51.9,46.2,52.5,52.2z"/>
			<path fill="#F2F6F9" d="M49.7,65.1l-3.8,3.8c0.4,1.6,0.7,2.9,0.5,4.4c1.7-1.5,3.7-3.1,5.3-4.6C51,67.8,50.4,66.9,49.7,65.1z"/>
			<path fill="#F2F6F9" d="M31.4,52.9l3.8-3.8c-0.4-1.5-0.7-2.9-0.5-4.4c-1.7,1.5-3.7,3.1-5.3,4.6C30,50,30.6,50.8,31.4,52.9z"/>
			<path fill="#F2F6F9" d="M50.4,38.4c8.2,9.4,1.8,21.4-6.2,21.5c2.9,2.2,3.1,5.2,3.6,7.7l8-8V43C54.5,41,52.6,39.5,50.4,38.4z"/>
			<path fill="#F2F6F9" d="M44.4,49.9c-2.2-2.4-5.9-2.6-8.3-0.4c0.6,2.9,0.7,4,1.4,5.4c1.9,3.4,6.2,5,9.9,3.2
				C47.4,54.7,46.2,52,44.4,49.9z"/>
			<path fill="#F2F6F9" d="M36.9,58c-2.8-2.2-3.1-5-3.6-7.7l-8,8V75c1.3,2,3.2,3.5,5.3,4.5C22.5,70.2,28.8,58.2,36.9,58z"/>
			<path fill="#F2F6F9" d="M43.6,63c-1.8-3.4-6.1-5-9.9-3.2c0.1,4.7,2.7,10.1,7.4,10.1c1.4,0,2.8-0.5,4-1.6
				C44.4,65.5,44.3,64.4,43.6,63z"/>
			<path fill="#F2F6F9" d="M35.6,80.5c0.7-0.7,1.7-0.9,2.5-0.3c0.5-2.9,2.4-3.3,2.6-3.5c-6.4-0.2-11.6-5.1-12.1-11
				c-2,5.4,0,10.6,4.3,14.6C33.6,79.7,34.8,79.6,35.6,80.5z"/>
			<path fill="#F2F6F9" d="M41.9,99.1l-0.3,1.9c1.5,0,2.7-0.1,4.5-0.7L46,98.8C44.4,99.2,43.2,99.2,41.9,99.1z"/>
			<path fill="#F2F6F9" d="M35.7,99.3c1.5,0.9,3.1,1.5,4.9,1.7l0.3-2c-1.5-0.3-3-0.8-4.4-1.5L35.7,99.3z"/>
			<path fill="#F2F6F9" d="M32.6,94.3l-0.8,0.9c0.9,1.4,1.9,2.6,3.2,3.5l0.8-1.7C34.6,96.3,33.5,95.3,32.6,94.3z"/>
			<path fill="#F2F6F9" d="M33.2,93.6c3.1,3.5,8.1,5.5,12.7,4.2l-0.1-1.5c-0.1,0-0.2,0-0.4,0c-0.1,0-0.2,0.1-0.4,0.1
				c-0.2-0.1-5.8,0.2-11-3.7L33.2,93.6z"/>
			<path fill="#F2F6F9" d="M46.4,94.4c-0.4-0.3-2.6,0.2-4.7-1.2c-3.4-2.1-3.3-7.2-3.3-11.4c0-0.5-0.4-0.9-0.9-0.9s-0.9,0.4-0.9,0.9
				c0,5.8,0.9,12.4,6.5,13.5c1.5,0.2,2.4,0.2,2.6,0.2c0.6-0.1,0.9-0.5,0.9-0.8L46.4,94.4z"/>
			<path fill="#F2F6F9" d="M38.7,93.8c-2.6-2.6-3.1-8.4-3.1-12c0-1.2-1.8-1.2-1.8,0C33.8,86.7,34.6,91.1,38.7,93.8z"/>
			<path fill="#F2F6F9" d="M35.5,92.1c-2.2-2.8-2.6-6.8-2.6-10.4c0-1.2-1.8-1.2-1.8,0C31,86,31.9,89.8,35.5,92.1z"/>
			<path fill="#F2F6F9" d="M45.6,25.8c2.2,2.8,2.6,6.8,2.6,10.4c0,1.2,1.8,1.2,1.8,0C49.7,35.7,51.2,29.9,45.6,25.8z"/>
			<path fill="#F2F6F9" d="M45.4,36.2c0,0.5,0.4,0.9,0.9,0.9c0.5,0,0.9-0.4,0.9-0.9c0-5-0.8-9.3-4.9-12C45,26.7,45.4,32.5,45.4,36.2
				z"/>
			<path fill="#F2F6F9" d="M34.7,23.6c0.1,0.1,0.2,0.1,0.5,0.1c7,0,7.5,5.5,7.5,12.4c0,1.2,1.8,1.2,1.8,0c0-5.8-0.9-12.4-6.5-13.5
				c-1.6-0.2-2.4-0.2-2.6-0.2c-0.6,0.1-0.9,0.5-0.9,0.8L34.7,23.6z"/>
			<path fill="#F2F6F9" d="M48.5,23.6l0.8-0.9c-0.9-1.4-1.9-2.6-3.2-3.5l-0.8,1.7C46.5,21.7,47.6,22.6,48.5,23.6z"/>
			<path fill="#F2F6F9" d="M45.4,18.7c-1.5-0.9-3.1-1.5-4.9-1.7l-0.3,2c1.5,0.3,3,0.8,4.4,1.5L45.4,18.7z"/>
			<path fill="#F2F6F9" d="M39.2,18.8l0.3-1.9c-1.5,0-2.7,0.1-4.5,0.7l0.1,1.5C36.7,18.7,37.9,18.7,39.2,18.8z"/>
			<path fill="#F2F6F9" d="M47.9,24.4c-3.1-3.5-8.1-5.5-12.7-4.2l0.1,1.5c0.1,0,0.2,0,0.4,0s0.2-0.1,0.4-0.1c0,0,0.1,0,0.1,0
				s0.2,0,0.5,0c3.1,0,7.4,1.4,10.5,3.7L47.9,24.4z"/>
			<path fill="#F2F6F9" d="M56.7,59.9c0.2,0,0.4,0,0.5,0V43.3h-1.9v23.6c0.5,0.8,1.9,1.5,1.9,2.7c0,0.7-0.6,1.3-1.3,1.2
				c-0.4,0-0.3-0.1-0.6-0.1v12.4h1.9V65.9c-0.2,0-0.4,0-0.5,0c-0.6,0-0.6-1,0-1c0.1,0,0.3,0,0.5,0v-0.8c-0.2,0-0.4,0-0.5,0
				c-0.6,0-0.6-1,0-1c0.1,0,0.3,0,0.5,0v-0.7c-0.2,0-0.4,0-0.5,0c-0.6,0-0.6-1,0-1c0.1,0,0.3,0,0.5,0v-0.7c-0.2,0-0.3,0-0.5,0
				C56.1,60.8,56.1,59.9,56.7,59.9z"/>
			<path fill="#F2F6F9" d="M23.9,52c0.2,0,0.4,0,0.5,0c0.3,0,0.5,0.2,0.5,0.5c0,0.3-0.2,0.5-0.5,0.5c-0.1,0-0.3,0-0.5,0v0.8
				c0.2,0,0.4,0,0.5,0c0.6,0,0.6,1,0,1c-0.1,0-0.3,0-0.5,0v0.7c0.2,0,0.4,0,0.5,0c0.7,0,0.6,1,0,1c-0.1,0-0.3,0-0.5,0v0.7
				c0.2,0,0.3,0,0.5,0c0.3,0,0.5,0.2,0.5,0.5c0,0.3-0.2,0.5-0.5,0.5c-0.2,0-0.4,0-0.5,0v16.6h1.9V51.1c-0.4-0.8-1.9-1.5-1.9-2.7
				c0-0.5,0.4-1.2,1.3-1.2c0.4,0,0.3,0.1,0.6,0.1V34.8h-1.9V52z"/>
		</g>
		<path id="Line_43_" fill="#1A1818" d="M36.9,28.5c0,0.4,0,0.4,0,0.7c0,0.3-0.2,0.5-0.5,0.5c-0.3,0-0.5-0.2-0.5-0.5
			c0-0.4,0-0.4,0-0.7c0-0.3,0.2-0.5,0.5-0.5C36.6,28,36.9,28.2,36.9,28.5z M37.3,45.4L37,44.5l-0.9,0.3l0.3,0.9L37.3,45.4z
			 M48.7,51.2c-0.2-0.6-0.2-0.4-0.4-0.9l-0.9,0.4l0.4,0.9L48.7,51.2z M39.9,44.2c-0.6,0-0.4,0-1,0l0,1l1,0L39.9,44.2z M45.4,46.4
			c-0.5-0.4-0.3-0.2-0.8-0.6L44,46.6l0.8,0.6L45.4,46.4z M47.3,48.6c-0.4-0.5-0.2-0.3-0.6-0.8L46,48.4l0.6,0.8L47.3,48.6z
			 M42.8,44.9c-0.6-0.2-0.3-0.1-0.9-0.3l-0.3,0.9l0.9,0.3L42.8,44.9z M48.5,54.2l1-0.2l-0.2-1l-1,0.2L48.5,54.2z M44.7,90
			c0.3,0,0.5-0.2,0.5-0.5c0-0.4,0-0.4,0-0.7c0-0.3-0.2-0.5-0.5-0.5c-0.3,0-0.5,0.2-0.5,0.5c0,0.4,0,0.4,0,0.7
			C44.2,89.7,44.4,90,44.7,90z M65.6,84.3c-0.9,1.6-1.8,2.5-1.8,2.5l-0.7,0l-2.3-2.4c-0.2-0.7-0.1-0.1-0.1-1.2c0-1.5-0.5-2.8-2-3.1
			v3.5l-0.5,0.5h-2.9l-0.5-0.5v-3.5c-0.9,0.1-1.4,0.5-2,0.9c-0.3,0.2-0.6,0.1-0.7-0.2c-1-2-1-4.4,0-6.2c0.1-0.2,0.4-0.3,0.7-0.2
			c0.2,0.1,0.9,0.7,2,0.9v-4.8c-0.5-0.3-1-0.6-1.5-1c-3.7,3.5-10.1,7.5-8.2,9.8c1,0,2,0.3,2.2,1.3c0.2,0.7-0.1,1.5,0.3,1.8
			c0.3,0.2,0.3,0.6,0,0.8c0.2,0,0.6,0.2,0.8,0.3c0.2,0.2,0.2,0.6,0,0.7c-0.1,0.1-0.3,0.2-0.4,0.5c-0.1,0.2-0.1,0.5-0.1,0.8l0.9,0.3
			l0.3,0.7c-0.7,1-1.3,1.7-1.6,2.7c-0.4,1.3,1.2,1.8-0.2,4.2c0.9,0.4,1.1,1.5,0.4,2.3l0.1,0.1l0.4,4.8l-0.3,0.5
			c-6.7,2.4-12.9-0.1-16.1-5.6l0.1-0.6l2.6-2.8c-3-2.7-3.8-6.3-3.8-10.3c0-0.5,0.2-1,0.6-1.4c-2.3-1.1-4.2-2.7-5.6-4.7h-2.7
			l-0.5-0.5V58c-1.1-0.2-2-0.7-2-1.9c0-0.2,0-0.5,0.1-0.7c-0.5-0.6-0.6-1.4-0.2-1.9c-0.3-0.6-0.3-1.2,0.1-1.7
			c-0.4-0.9,0.2-2.1,2-2.3v-6.8c-0.5,0.1-0.9,0.2-1.3,0.6c-0.6,0.6-0.8,1.6-0.8,2.4c0,0.4,0,0.7,0,0.7l-0.1,0.4L18,49.3l-0.7,0
			c0,0-0.9-0.9-1.8-2.5c-2.5-4.3-2.4-9.1,0-13.2c0.9-1.6,1.8-2.5,1.8-2.5l0.7,0l2.3,2.4c0.1,0.5,0.1,0.4,0.1,0.5
			c-0.1,0.9,0,2.2,0.5,2.9c0.4,0.5,0.8,0.7,1.4,0.8v-3.5l0.5-0.5h2.9l0.5,0.5v3.5c0.9-0.1,1.4-0.5,2-0.9c0.3-0.2,0.6-0.1,0.7,0.2
			c1,1.9,1,4.3,0,6.2l0,0l0,0c-0.1,0.2-0.4,0.3-0.6,0.1c-0.2-0.1-0.9-0.7-2-0.9v4.8c0.5,0.3,1,0.6,1.5,1c3.7-3.5,10.1-7.5,8.2-9.8
			c-1,0-2-0.3-2.2-1.3c-0.2-0.7,0.1-1.5-0.3-1.8c-0.3-0.2-0.3-0.6,0-0.8c-0.2,0-0.6-0.2-0.8-0.3c-0.3-0.2-0.2-0.6,0.1-0.8
			c0.4-0.2,0.5-0.8,0.5-1.2l-0.9-0.3l-0.3-0.7c0.7-1,1.3-1.7,1.6-2.7c0.4-1.3-1.2-1.8,0.2-4.2c-0.9-0.4-1.1-1.5-0.4-2.3l-0.1-0.1
			L33,17.4l0.3-0.5c6.7-2.4,12.8,0.1,16.1,5.6l-0.1,0.6l-2.6,2.8c3,2.7,3.8,6.3,3.8,10.3c0,0.5-0.2,1-0.6,1.4
			c2.3,1.1,4.2,2.7,5.6,4.7h2.7l0.5,0.5V60c1.1,0.2,2,0.7,2,1.9c0,0.2,0,0.5-0.1,0.7c0.5,0.6,0.6,1.3,0.2,1.9
			c0.3,0.6,0.2,1.3-0.1,1.7c0.4,0.9-0.3,2.1-2,2.3v6.8c0.5-0.1,0.9-0.2,1.3-0.6c0.6-0.6,0.8-1.6,0.8-2.4c0-0.4,0-0.7,0-0.7l0.1-0.4
			l2.3-2.4l0.7,0c0,0,0.9,0.9,1.8,2.5C68.1,75.4,68,80.2,65.6,84.3z M26.3,39.8h2.5c0-0.6-0.2-1.2-0.4-1.7c-0.6,0.4-1.3,0.6-2.1,0.7
			V39.8z M26.3,41.7c0.8,0.1,1.4,0.3,2.1,0.7c0.2-0.5,0.3-1.1,0.4-1.7h-2.5V41.7z M54.8,78.2h-2.5c0,0.6,0.2,1.2,0.4,1.7
			c0.6-0.4,1.3-0.6,2.1-0.7V78.2z M54.8,76.2c-0.8-0.1-1.4-0.3-2.1-0.7c-0.2,0.5-0.3,1.1-0.4,1.7h2.5V76.2z M58.7,76.2v1h4.6
			c-0.8-1.4-0.5-3.7-1.6-5.6C61.9,73.9,61,76,58.7,76.2z M45.1,25.8c2.2,2.9,2.7,6.8,2.7,10.4c0,0.5,0.4,0.9,0.9,0.9
			c0.5,0,0.9-0.4,0.9-0.9c0-0.3,0.1-3.2-0.9-5.9C47.9,28.3,46.8,27,45.1,25.8z M36.8,41.2c1.8-0.7,3.4-1,4.1-2.8
			c0.1-0.3,0.2-0.7,0.2-1.1c-1.4,0.8-2.9,1.3-4.1,1.5C37.4,39.5,37.3,40.3,36.8,41.2z M39.5,41.2c3.5,0.1,6.8,1.6,9.1,4.2
			c1.8,2,2.8,3.9,3,6.8c1.8-4.7,0.7-10.1-4.3-14.7c-0.8,0.8-2,0.8-2.7-0.1c-0.6,0.7-1.7,0.8-2.4,0.3C41.7,39.5,40.9,40.5,39.5,41.2z
			 M34.8,22.5c-0.6,0.1-0.9,0.7-0.7,1c0.1,0.2,0.3,0.2,0.5,0.2c5.1,0,6.9,2.9,7.4,7.8c0.1,1.5,0.1,3,0.1,4.7c0,0.3,0.1,0.5,0.3,0.6
			C43,37.4,44,37,44,36.2C44,28.6,42.3,22,34.8,22.5z M45,36.2c0,0.8,1,1.2,1.6,0.6c0.2-0.2,0.3-0.4,0.3-0.6c0-3-0.4-5.2-0.9-6.9
			c-0.8-2.3-2.1-3.9-3.9-5.1C44.5,27.1,45,32.2,45,36.2z M46.9,24.3c-3.4-3.8-8.5-5.4-12.7-4.2l0.1,1.5c0.1,0,0.2,0,0.4,0
			c0.1,0,0.3,0,0.4,0c3.2-0.1,7.7,1.2,10.9,3.7L46.9,24.3z M45.2,19.2L44.4,21c1.2,0.7,2.2,1.6,3.2,2.7l0.8-0.9
			C47.5,21.3,46.5,20.2,45.2,19.2z M39.2,19c1.4,0.2,2.9,0.7,4.4,1.5l0.9-1.8c-1.5-1-3.2-1.5-4.9-1.7L39.2,19z M34,17.7l0.1,1.4
			c1.3-0.3,2.7-0.4,4.1-0.3l0.3-1.9C37,16.9,35.4,17.2,34,17.7z M41.2,36c0-1.8,0-3.4-0.2-4.9c-0.5-4-1.9-6.3-6-6.4
			c-0.1,0.1-0.1,0.2-0.2,0.3c-0.1,0.2-0.2,0.7-0.1,0.9c0.3,0.6,2.7-0.2,3.8,1.2c0.2,0.2,0.1,0.5-0.1,0.7c-0.2,0.2-0.5,0.1-0.7-0.1
			c-0.7-0.9-2.4-0.4-3.3-0.8c0.2,0.6,0.6,1.2,0.2,2.2c-0.3,1-0.8,1.6-1.3,2.4c1.2,0.4,1.2,0.4,1.3,0.4c0.1,0-0.1-0.1,2.2,2.2
			c0.2,0.2,0.2,0.5,0,0.7c-0.2,0.2-0.5,0.2-0.7,0l-1.9-1.9c0,0.4-0.1,0.7-0.3,1.1c0.2,0,0.4,0.1,0.6,0.1c0.3,0,0.5,0.2,0.5,0.5
			c0,0.3-0.2,0.5-0.5,0.5c-0.6,0-0.4-0.1-0.2,0.2c0.6,0.8,0,2,0.5,2.3c0.3,0.2,0.9,0.3,1.3,0.3C37.5,37.7,39.4,37.2,41.2,36z
			 M35,48.4c2.8-2.1,6.8-1.7,9.1,1c1.8,2.1,3.1,4.8,3.3,8.3c1.2-0.8,2.3-2,3.2-3.5c0.1-3.6-0.8-5.7-2.8-8c-2.6-3-6.5-4.3-10.1-3.8
			c-0.8,0.1-1.7,0.3-2.3,0.8C34.2,44.3,34.6,46.7,35,48.4z M46.5,58.2c-0.1-3.5-1.3-6.2-3.1-8.2c-2.2-2.5-5.9-2.6-8.3-0.4l0.7,3.3
			C36.7,57.7,42.1,60.3,46.5,58.2z M34.6,59.8c0.1,3.5,1.3,6.2,3.1,8.2c2.2,2.5,5.9,2.6,8.3,0.4l-0.7-3.3
			C44.3,60.2,39,57.6,34.6,59.8z M28.4,49.2c0.9,1.1,1.5,2.3,2,3.6l3.8-3.8c-0.4-1.3-0.7-3-0.5-4.4C32,46.2,29.9,47.8,28.4,49.2z
			 M19.4,34.1c-1.1,1.9-0.8,4.3-1.6,5.6h4.5v-1C20,38.6,19.2,36.4,19.4,34.1z M18.7,47.1c-1.5-2.4-1-5.6-2.1-6.3
			c-0.1-0.1-0.3-0.1-0.6-0.1c-0.3,0-0.5-0.2-0.5-0.5c0-0.3,0.2-0.5,0.5-0.5c0.6,0,0.9-0.2,1.1-0.8c0.5-1.3,0.4-3.6,1.6-5.6l-1.1-1.2
			c-1.8,2.1-3,5.1-3,8c0,3,1.3,6,3,8L18.7,47.1z M22.4,41.7v-1h-4.6c0.8,1.4,0.5,3.7,1.6,5.6C19.2,44.1,20,42,22.4,41.7z M25.3,51.1
			c-0.4-0.7-1.3-1.2-1.8-2.1c-0.5-1.1,0.3-1.9,1.1-1.9c0.2,0,0.5,0.1,0.7,0.1V34.8h-1.9v16.3c0,0.3-0.2,0.5-0.5,0.5
			c-0.3,0-0.5-0.2-0.5-0.5v-0.7c-0.4,0.1-0.9,0.2-1.1,0.5c-0.2,0.3,0,0.5,0.3,0.7c0.1,0,0.2,0.1,0.4,0.1c0.5,0.1,1.3,0.2,1.9,0.2
			c0.3,0,0.5,0.2,0.5,0.5c0,0.3-0.2,0.5-0.5,0.5c-0.7,0-2.1-0.1-2.8-0.5c-0.1,0.4,0.2,0.7,0.5,0.9c0.1,0,0.2,0.1,0.4,0.1
			c0.5,0.1,1.3,0.2,1.9,0.2c0.3,0,0.5,0.2,0.5,0.5c0,0.3-0.2,0.5-0.5,0.5c-0.6,0-1.5-0.1-2.1-0.2c-0.7-0.2-0.7-0.3-0.7-0.2
			c0,0.3,0.2,0.6,0.5,0.8c0.4,0.3,1.8,0.4,2.3,0.4c0.3,0,0.5,0.2,0.5,0.5s-0.2,0.5-0.5,0.5c-0.6,0-1.8-0.2-2.5-0.4
			c0,0.2,0,0.4,0.1,0.5c0,0.1,0.2,0.2,0.6,0.4c0.4,0.1,1,0.3,1.8,0.3c0.3,0,0.5,0.2,0.5,0.5c0,0.3-0.2,0.5-0.5,0.5
			c-0.2,0-0.4,0-0.5,0v16.6h1.9V51.1z M26.2,50.6c0.1,0.1,0.1,0.2,0.1,0.3V57l3.4-3.4c-0.9-2.4-2.4-5.2-5-5.6l0,0
			c-0.2,0-0.3,0.1-0.3,0.3c0,0.2,0.2,0.4,0.3,0.6C25.1,49.5,25.7,49.9,26.2,50.6z M31.6,79.5c-2.3-2.7-3.8-5.9-3.8-9.5
			c0-5.8,4.2-11.9,10.1-12c-0.9-0.7-1.6-1.6-2.2-2.6c-0.8-1.4-0.9-2.4-1.4-5.1l-8,8V75C27.6,76.9,29.4,78.5,31.6,79.5z M44.3,76.8
			c-1.8,0.6-3.4,1-4.1,2.8C40.1,80,40,80.3,40,80.8c1.4-0.8,2.9-1.3,4.1-1.5C43.7,78.5,43.8,77.6,44.3,76.8z M41.6,76.7
			c-3.5-0.1-6.8-1.6-9.1-4.2c-1.8-2-2.8-3.9-3-6.8c-1.8,4.7-0.7,10.1,4.3,14.7c0.8-0.8,2-0.8,2.7,0.1c0.6-0.7,1.7-0.8,2.4-0.3
			C39.4,78.5,40.2,77.4,41.6,76.7z M46.3,95.4c0.6-0.1,0.9-0.7,0.7-1c-0.1-0.2-0.3-0.2-0.5-0.2c-5.1,0-6.9-2.9-7.4-7.8
			c-0.1-1.5-0.1-3-0.1-4.7c0-0.3-0.1-0.5-0.3-0.6c-0.6-0.6-1.6-0.2-1.6,0.6C37.1,89.3,38.8,96,46.3,95.4z M36.1,81.8
			c0-0.5-0.4-0.9-0.9-0.9c-0.5,0-0.9,0.4-0.9,0.9c0,3.9,0.6,8.1,3.4,10.9c0.5,0.4,0.9,0.8,1.5,1.2C36.6,90.8,36.1,85.7,36.1,81.8z
			 M36,92.2c-2.2-2.9-2.7-6.8-2.7-10.4c0-0.5-0.4-0.9-0.9-0.9c-0.5,0-0.9,0.4-0.9,0.9c0,0.3-0.1,3.2,0.9,5.9
			C33.1,89.6,34.3,91,36,92.2z M34.2,93.6c3.4,3.8,8.5,5.4,12.7,4.2l-0.1-1.5c-0.1,0-0.2,0-0.4,0c-0.1,0-0.3,0-0.4,0
			c-3.7,0.1-8.1-1.5-10.9-3.7L34.2,93.6z M35.9,98.7l0.8-1.7c-1.2-0.7-2.2-1.6-3.2-2.7l-0.8,0.9C33.6,96.6,34.6,97.8,35.9,98.7z
			 M41.9,99c-1.4-0.2-2.9-0.7-4.4-1.5l-0.9,1.8c1.6,1,3.2,1.5,4.9,1.7L41.9,99z M47.1,100.3L47,98.8c-1.3,0.3-2.7,0.4-4.1,0.3
			l-0.3,1.9C44.1,101,45.6,100.7,47.1,100.3z M39.9,81.9c0,1.8,0,3.4,0.2,4.9c0.5,4,1.9,6.3,6,6.4c0.1-0.1,0.1-0.2,0.2-0.3
			c0.1-0.2,0.2-0.7,0.1-0.9c-0.3-0.6-2.7,0.2-3.8-1.2c-0.2-0.2-0.1-0.5,0.1-0.7c0.2-0.2,0.5-0.1,0.7,0.1c0.7,0.9,2.4,0.4,3.3,0.8
			c-0.2-0.6-0.6-1.2-0.2-2.2c0.3-1,0.8-1.6,1.3-2.4c-1.2-0.4-1.2-0.4-1.3-0.4c-0.1,0,0,0.1-2.2-2.2c-0.2-0.2-0.2-0.5,0-0.7
			c0.2-0.2,0.5-0.2,0.7,0l1.9,1.9c0-0.4,0.1-0.7,0.3-1.1C47,84,46.8,84,46.6,84c-0.3,0-0.5-0.2-0.5-0.5c0-0.3,0.2-0.5,0.5-0.5
			c0.6,0,0.4,0.1,0.2-0.2c-0.6-0.8,0-2-0.5-2.3c-0.3-0.2-0.9-0.3-1.3-0.3C43.6,80.2,41.6,80.8,39.9,81.9z M46.1,69.6
			c-2.8,2.1-6.8,1.7-9.1-1c-1.8-2.1-3.1-4.8-3.3-8.3c-1.2,0.8-2.3,2-3.2,3.5c-0.1,3.6,0.8,5.7,2.8,8c2.6,3,6.5,4.3,10.1,3.8
			c0.8-0.1,1.7-0.3,2.3-0.8C46.9,73.6,46.5,71.3,46.1,69.6z M46.8,67.6l8-8V42.9c-1.3-1.9-3.1-3.5-5.3-4.5c2.3,2.7,3.8,5.9,3.8,9.5
			c0,5.8-4.2,11.9-10.1,12c0.9,0.7,1.6,1.6,2.2,2.6C46.2,63.9,46.3,64.8,46.8,67.6z M52.7,68.7c-0.9-1.1-1.5-2.3-2-3.6l-3.8,3.8
			c0.4,1.3,0.7,3,0.5,4.4C49.1,71.8,51.2,70.2,52.7,68.7z M56.4,69.9L56.4,69.9c0.2,0,0.3-0.1,0.3-0.3c0-0.2-0.2-0.4-0.3-0.6
			c-0.4-0.6-1.1-0.9-1.5-1.7c-0.1-0.1-0.1-0.2-0.1-0.3V61l-3.4,3.4C52.3,66.8,53.8,69.6,56.4,69.9z M58.7,66.8v0.7
			c0.4-0.1,0.9-0.2,1.1-0.5c0.2-0.3,0-0.5-0.3-0.7c-0.1,0-0.2-0.1-0.4-0.1c-0.5-0.1-1.3-0.2-1.9-0.2c-0.3,0-0.5-0.2-0.5-0.5
			c0-0.3,0.2-0.5,0.5-0.5c0.7,0,2.1,0.1,2.8,0.5c0.1-0.4-0.2-0.7-0.5-0.9c-0.1,0-0.2-0.1-0.4-0.1c-0.5-0.1-1.3-0.2-1.9-0.2
			c-0.3,0-0.5-0.2-0.5-0.5s0.2-0.5,0.5-0.5c0.6,0,1.5,0.1,2.1,0.2c0.6,0.2,0.7,0.3,0.7,0.2c0-0.3-0.2-0.6-0.5-0.8
			c-0.4-0.3-1.8-0.4-2.3-0.4c-0.3,0-0.5-0.2-0.5-0.5s0.2-0.5,0.5-0.5c0.6,0,1.8,0.2,2.5,0.4c0-0.2,0-0.4-0.1-0.5
			c0-0.1-0.2-0.2-0.6-0.4c-0.4-0.1-1-0.3-1.8-0.3c-0.3,0-0.5-0.2-0.5-0.5c0-0.3,0.2-0.5,0.5-0.5c0.2,0,0.4,0,0.5,0V43.3h-1.9v23.6
			c0.3,0.6,1,0.9,1.4,1.6c1.1,1.5,0,2.6-1,2.4c-0.2,0-0.3-0.1-0.5-0.1v12.3h1.9V66.8c0-0.3,0.2-0.5,0.5-0.5
			C58.5,66.3,58.7,66.5,58.7,66.8z M61.7,83.8c1.1-1.9,0.8-4.3,1.6-5.6h-4.5v1C61,79.4,61.9,81.5,61.7,83.8z M66.5,77.7
			c0-3-1.2-6-3-8l-1.1,1.2c1.3,2.2,1,5,1.8,6c0.2,0.3,0.5,0.4,0.9,0.4c0.3,0,0.5,0.2,0.5,0.5c0,0.3-0.2,0.5-0.5,0.5
			c-0.4,0-0.7,0.1-0.9,0.4c-0.7,1-0.5,3.8-1.8,6l1.1,1.2C65.2,83.6,66.5,80.7,66.5,77.7z M43.8,72.5l0.3,0.9l0.9-0.3l-0.3-0.9
			L43.8,72.5z M38.3,73.1c0.6,0.2,0.3,0.1,0.9,0.3l0.3-0.9l-0.9-0.3L38.3,73.1z M41.2,73.8c0.6,0,0.4,0,1,0l0-1l-1,0L41.2,73.8z
			 M35.7,71.5c0.5,0.4,0.3,0.2,0.8,0.6l0.6-0.8l-0.8-0.6L35.7,71.5z M33.8,69.3c0.4,0.5,0.2,0.3,0.6,0.8l0.8-0.6l-0.6-0.8L33.8,69.3
			z M32.4,66.8c0.2,0.6,0.1,0.3,0.4,0.9l0.9-0.4l-0.4-0.9L32.4,66.8z M32.6,63.7l-1,0.2l0.2,1l1-0.2L32.6,63.7z"/>
	</g>
	<g>
		<path fill="#1A1818" d="M12.6,5h2v11.4c0,3.2-1.3,5.6-4.4,5.6c-2.7,0-4.4-2-4.4-4.7V16h2v1.3c0,1.8,1,2.7,2.4,2.7
			c1.5,0,2.4-1,2.4-3.1V5z"/>
	</g>
	<g>
		<path fill="#1A1818" d="M68.5,112.9h-2v-11.4c0-3.2,1.3-5.6,4.4-5.6c2.7,0,4.4,2,4.4,4.7v1.3h-2v-1.3c0-1.8-1-2.7-2.4-2.7
			c-1.5,0-2.4,1-2.4,3.1V112.9z"/>
	</g>
</g>
</svg>
