<?xml version="1.0" encoding="utf-8"?>
<!-- Generator: Adobe Illustrator 22.1.0, SVG Export Plug-In . SVG Version: 6.00 Build 0)  -->
<svg version="1.1" id="Layer_1" xmlns="http://www.w3.org/2000/svg" xmlns:xlink="http://www.w3.org/1999/xlink" x="0px" y="0px"
	 viewBox="0 0 81.1 117.9" enable-background="new 0 0 81.1 117.9" xml:space="preserve">
<g>
	<path fill="#F2F6F9" d="M75.1,117.9H6c-3.3,0-6-2.7-6-6V6c0-3.3,2.7-6,6-6h69.1c3.3,0,6,2.7,6,6v105.9
		C81.1,115.3,78.4,117.9,75.1,117.9z"/>
	<g>
		<g>
			<polygon fill="#EA1B4C" points="7.5,29.1 10.2,32.4 10.2,25.7 			"/>
		</g>
		<g>
			<polygon fill="#DB093B" points="10.2,25.7 10.2,32.4 13,29.1 			"/>
		</g>
	</g>
	<g>
		<g>
			<g>
				<polygon fill="#EA1B4C" points="73.6,88.9 70.9,85.5 70.9,92.2 				"/>
			</g>
		</g>
		<g>
			<g>
				<polygon fill="#DB093B" points="70.9,92.2 70.9,85.5 68.1,88.9 				"/>
			</g>
		</g>
	</g>
	<path id="Line_40_" fill="#DB093B" d="M36.9,28.7c0,0.4,0,0.4,0,0.7c0,0.3-0.2,0.5-0.5,0.5c-0.3,0-0.5-0.2-0.5-0.5
		c0-0.4,0-0.4,0-0.7c0-0.3,0.2-0.5,0.5-0.5C36.6,28.2,36.9,28.4,36.9,28.7z M32.1,54.3c-0.3,0-0.5,0.2-0.5,0.5
		c0,0.3,0.2,0.5,0.5,0.5c0.3,0,0.5-0.2,0.5-0.5C32.6,54.5,32.4,54.3,32.1,54.3z M32.1,46.9c0.3,0,0.5-0.2,0.5-0.5
		c0-0.3-0.2-0.5-0.5-0.5c-0.3,0-0.5,0.2-0.5,0.5C31.7,46.7,31.9,46.9,32.1,46.9z M32.1,49.7c0.3,0,0.5-0.2,0.5-0.5
		c0-0.3-0.2-0.5-0.5-0.5c-0.3,0-0.5,0.2-0.5,0.5C31.7,49.5,31.9,49.7,32.1,49.7z M32.1,52.5c0.3,0,0.5-0.2,0.5-0.5
		c0-0.3-0.2-0.5-0.5-0.5c-0.3,0-0.5,0.2-0.5,0.5C31.7,52.3,31.9,52.5,32.1,52.5z M35.7,42.9c0.2-0.2,0.3-0.5,0.1-0.7
		c-0.2-0.2-0.5-0.3-0.7-0.1c-0.2,0.2-0.3,0.5-0.1,0.7C35.2,43,35.5,43,35.7,42.9z M33.5,44.5c0.2-0.2,0.3-0.5,0.1-0.7
		c-0.2-0.2-0.5-0.3-0.7-0.1c-0.2,0.2-0.3,0.5-0.1,0.7C33,44.7,33.3,44.7,33.5,44.5z M37.7,41.3c0.3,0,0.5-0.2,0.5-0.5
		c0-0.3-0.2-0.5-0.5-0.5c-0.3,0-0.5,0.2-0.5,0.5C37.2,41.1,37.4,41.3,37.7,41.3z M43.2,46.2c-0.3,0-0.5,0.2-0.5,0.5
		c0,0.3,0.2,0.5,0.5,0.5c0.3,0,0.5-0.2,0.5-0.5C43.7,46.4,43.5,46.2,43.2,46.2z M50.4,42.8c-0.2,0.2-0.3,0.5-0.1,0.7
		c0.2,0.2,0.5,0.3,0.7,0.1c0.2-0.2,0.3-0.5,0.1-0.7C51,42.7,50.7,42.7,50.4,42.8z M48.2,44.3c-0.2,0.1-0.3,0.4-0.2,0.7
		c0.1,0.2,0.4,0.3,0.7,0.2s0.3-0.4,0.2-0.7C48.7,44.2,48.4,44.1,48.2,44.3z M45.7,45.4c-0.3,0.1-0.4,0.4-0.3,0.6
		c0.1,0.3,0.4,0.4,0.6,0.3c0.3-0.1,0.4-0.4,0.3-0.6C46.2,45.4,45.9,45.3,45.7,45.4z M53.1,41.7c0.2-0.2,0.2-0.5,0-0.7
		c-0.2-0.2-0.5-0.2-0.7,0c-0.2,0.2-0.2,0.5,0,0.7C52.6,41.9,52.9,41.9,53.1,41.7z M44.7,89.7c0.3,0,0.5-0.2,0.5-0.5
		c0-0.4,0-0.4,0-0.7c0-0.3-0.2-0.5-0.5-0.5c-0.3,0-0.5,0.2-0.5,0.5c0,0.4,0,0.4,0,0.7C44.2,89.5,44.5,89.7,44.7,89.7z M48.9,63.6
		c0.3,0,0.5-0.2,0.5-0.5c0-0.3-0.2-0.5-0.5-0.5c-0.3,0-0.5,0.2-0.5,0.5C48.5,63.4,48.7,63.6,48.9,63.6z M48.9,65.4
		c-0.3,0-0.5,0.2-0.5,0.5s0.2,0.5,0.5,0.5c0.3,0,0.5-0.2,0.5-0.5S49.2,65.4,48.9,65.4z M45.3,75.1c-0.2,0.2-0.3,0.5-0.1,0.7
		c0.2,0.2,0.5,0.3,0.7,0.1c0.2-0.2,0.3-0.5,0.1-0.7C45.9,75,45.6,74.9,45.3,75.1z M48.9,71c-0.3,0-0.5,0.2-0.5,0.5
		c0,0.3,0.2,0.5,0.5,0.5c0.3,0,0.5-0.2,0.5-0.5C49.4,71.2,49.2,71,48.9,71z M48.9,68.2c-0.3,0-0.5,0.2-0.5,0.5
		c0,0.3,0.2,0.5,0.5,0.5c0.3,0,0.5-0.2,0.5-0.5C49.4,68.4,49.2,68.2,48.9,68.2z M47.6,73.4c-0.2,0.2-0.3,0.5-0.1,0.7
		c0.2,0.2,0.5,0.3,0.7,0.1c0.2-0.2,0.3-0.5,0.1-0.7C48.1,73.3,47.8,73.2,47.6,73.4z M43.4,76.7c-0.3,0-0.5,0.2-0.5,0.5
		c0,0.3,0.2,0.5,0.5,0.5c0.3,0,0.5-0.2,0.5-0.5C43.9,76.9,43.7,76.7,43.4,76.7z M37.9,71.8c0.3,0,0.5-0.2,0.5-0.5
		c0-0.3-0.2-0.5-0.5-0.5c-0.3,0-0.5,0.2-0.5,0.5C37.4,71.6,37.6,71.8,37.9,71.8z M32.9,73.7c0.2-0.1,0.3-0.4,0.2-0.7
		c-0.1-0.2-0.4-0.3-0.7-0.2c-0.2,0.1-0.3,0.4-0.2,0.7C32.4,73.7,32.7,73.8,32.9,73.7z M30.7,75.1c0.2-0.2,0.3-0.5,0.1-0.7
		c-0.2-0.2-0.5-0.3-0.7-0.1c-0.2,0.2-0.3,0.5-0.1,0.7C30.1,75.2,30.4,75.3,30.7,75.1z M35.4,72.6c0.3-0.1,0.4-0.4,0.3-0.6
		c-0.1-0.3-0.4-0.4-0.6-0.3c-0.3,0.1-0.4,0.4-0.3,0.6C34.9,72.5,35.1,72.7,35.4,72.6z M28,76.2c-0.2,0.2-0.2,0.5,0,0.7
		c0.2,0.2,0.5,0.2,0.7,0c0.2-0.2,0.2-0.5,0-0.7C28.5,76,28.2,76,28,76.2z M67.2,78c0,3.3-0.8,5.4-1.7,6.6c-0.8,1.2-1.7,1.6-1.8,1.6
		l-0.7-0.5c0-1.2-0.3-2-0.7-2.8c-0.8-1.3-2.2-2.1-3.6-2.5v2.9l-0.5,0.5h-2.9l-0.5-0.5v-3.2c-2.3-2-2.1-1.8-2.1-1.9
		c-0.1-0.2-0.1-0.4,0.1-0.6c0.1-0.1,0.5-0.4,2.1-1.8v-5.7c-1.6-0.8-2.7-2.2-3.5-3.8v7.3l-0.2,0.4L44.7,79c0.9,0,1.9,0.1,2.5,0.7
		c0.6,0.8,0,2,0.5,2.4c0.3,0.2,0.3,0.6,0,0.8c0.2,0,0.6,0.2,0.7,0.3c0.2,0.2,0.3,0.5,0.1,0.7c-0.1,0.1-0.2,0.1-0.3,0.3
		c-0.2,0.2-0.3,0.6-0.3,1l0.9,0.3l0.3,0.7c-0.4,0.5-0.7,0.9-0.9,1.4c-0.3,0.5-0.7,1.3-0.7,1.8c0,0.9,1.1,1.7-0.1,3.8
		c0,0.1,0,0,0.1,0.1c0.7,0.4,0.9,1.4,0.3,2.2c0,0-0.1-0.4,1.4,4.8l-0.3,0.6c-6.9,2.5-13,0.8-18.1-5.6l0.1-0.7l3.7-3
		c-1.7-2.3-2.3-5.7-2.3-8.5c-2.8-1.3-5.4-3.3-6.4-6.2h-2.8l-0.5-0.5V58.2c-0.6-0.1-1.4-0.4-1.7-1c-0.3-0.5-0.3-1.1-0.1-1.6
		c-0.5-0.6-0.6-1.4-0.2-1.9C20,53.2,20,52.5,20.4,52c-0.4-0.9,0.2-2.1,2-2.3v-7.3c-1.4,0.4-2.8,1.2-3.6,2.5
		c-0.5,0.7-0.8,1.6-0.8,2.8l-0.7,0.5c-0.1,0-0.9-0.4-1.8-1.6c-0.8-1.2-1.7-3.3-1.7-6.6c0-3.3,0.8-5.4,1.7-6.6
		c0.8-1.2,1.7-1.6,1.8-1.6l0.7,0.5c0,1.2,0.3,2,0.7,2.8c0.8,1.3,2.2,2.1,3.6,2.5v-2.9l0.5-0.5h2.9l0.5,0.5v3.2
		c2.2,2,2.1,1.8,2.1,1.9c0.1,0.2,0.1,0.4-0.1,0.6c-0.1,0.1-0.4,0.4-2.1,1.8v5.7c1.6,0.8,2.7,2.2,3.5,3.8v-7.3l0.2-0.4l6.5-4.9
		c-0.9,0-1.9-0.1-2.5-0.7c-0.6-0.8,0-2-0.5-2.4c-0.3-0.2-0.3-0.6,0-0.8c-0.2,0-0.6-0.2-0.7-0.3c-0.2-0.1-0.2-0.4-0.2-0.6
		c0.1-0.2,0.2-0.2,0.4-0.4c0.2-0.2,0.3-0.6,0.3-1l-0.9-0.3l-0.3-0.7c0.4-0.5,0.7-0.9,0.9-1.4c0.3-0.5,0.7-1.3,0.7-1.8
		c0-0.9-1.1-1.7,0.1-3.8c0-0.1,0,0-0.1-0.1c-0.7-0.4-0.9-1.4-0.3-2.2c0,0,0.1,0.4-1.4-4.8l0.3-0.6c6.9-2.5,13-0.8,18.1,5.6l-0.1,0.7
		l-3.7,3c1.7,2.3,2.3,5.7,2.3,8.5c2.8,1.3,5.4,3.3,6.4,6.2h2.8l0.5,0.5v18.2c0.6,0.1,1.4,0.4,1.7,1c0.3,0.5,0.3,1.2,0.1,1.6
		c0.5,0.6,0.6,1.4,0.2,1.9c0.3,0.6,0.2,1.3-0.1,1.7c0.4,0.9-0.2,2.1-2,2.3v7.3c1.4-0.4,2.8-1.2,3.6-2.5c0.5-0.7,0.8-1.6,0.8-2.8
		l0.7-0.5c0.1,0,0.9,0.4,1.8,1.6C66.4,72.6,67.2,74.7,67.2,78z M52.8,38.6c-3,4.2-8.8,6.6-13.9,7.3c1.5,0.6,3,1.5,4.2,2.6
		c4.3-1,9-3.1,11.5-6.8C54.3,40.6,53.7,39.6,52.8,38.6z M46.5,58c-0.3-5.3-3.4-9.3-7.7-11c-1-0.4-1.9-0.6-2.9-0.7
		c-0.5,0-0.9,0-1.4,0v12.7c1.8,0.8,3.9,0.3,5.8-0.4C42.3,57.8,44.5,57.3,46.5,58z M40.7,59.4c-2,0.8-4.1,1.2-6.1,0.5
		c0.3,5.3,3.4,9.3,7.7,11c1,0.4,1.9,0.6,2.9,0.7c0.5,0,0.9,0,1.4,0V59.1C44.7,58.3,42.6,58.7,40.7,59.4z M46.6,38
		c-0.7,1.3-2,1.7-3.3,1.5c-0.4,0.4-0.8,0.7-1.3,0.9l-6.5,4.9c0.1,0,0.3,0,0.4,0c5.7-0.2,12.9-2.6,16.1-7.3c-0.9-0.8-2-1.5-3.3-2.1
		C48.5,36.9,47.7,37.7,46.6,38z M44.7,36.2c0,0.8-0.3,1.7-0.7,2.4c1.3,0,2-1.1,2-2.2c0-4.4-0.7-10.3-4.7-12.3
		C44.2,26.9,44.7,32.1,44.7,36.2z M44.6,25.6c2,2.9,2.5,7.2,2.5,10.7c0,0.1,0,0.3,0,0.4c0.6-0.4,1-1.2,1-1.9
		C48,31.7,47.2,27.5,44.6,25.6z M45.7,19.5l-2.5,4.3c1.1,0.6,2,1.1,2.9,1.8l3.2-2.6C48.2,21.5,47,20.4,45.7,19.5z M38.6,22.1
		c1.3,0.3,2.6,0.7,3.8,1.2l2.5-4.4C43,17.7,41,17.1,39,17L38.6,22.1z M36.2,22.7c-0.5,0-0.9,0-1.4,0c-0.5,0.1-0.7,0.4-0.7,0.8
		c0,0.3,0.3,0.4,0.6,0.4c7.3,0,7.5,6.2,7.5,12.5c0,1.3-1.3,2.1-2.3,1.6c-0.2-0.1-0.3-0.4-0.2-0.7c0.1-0.2,0.4-0.3,0.7-0.2
		c0.3,0.1,0.9-0.1,0.9-0.8c0-0.2-0.1-0.3-0.2-0.4c-0.1-0.1-0.3-0.2-0.6-0.2c-1.7,0-2.5,2.2-0.8,3.4c1.9,1.3,4.2-1,4.2-3.1
		c0-3.3-0.4-7.6-2.2-10.4C40.3,23.8,38.5,22.9,36.2,22.7z M34.2,21.8c0.1,0,0.3,0,0.5,0c0.1,0,0.3,0,0.4,0c0.8,0,1.7,0,2.5,0.2
		l0.4-5c-1.6,0-3.2,0.3-5,0.9L34.2,21.8z M37.7,37.8c0-0.5,0.1-0.9,0.2-1.3c0.6-1.3,2.1-1.8,3.3-1.4c-0.1-5.7-0.6-10-6.2-10.1
		c-0.1,0.1-0.1,0.2-0.2,0.3c-0.1,0.2-0.2,0.7-0.1,0.9c0.3,0.6,2.7-0.2,3.8,1.2c0.2,0.2,0.1,0.5-0.1,0.7c-0.2,0.2-0.5,0.1-0.7-0.1
		c-0.7-0.9-2.4-0.4-3.3-0.8c0.2,0.6,0.6,1.2,0.2,2.2c-0.3,1-0.8,1.6-1.3,2.4c1.3,0.4,1.6,0.4,2.3,0.9c0.6,0.4,1.1,0.8,1.6,0.3
		c0.1-0.1,0.1-0.2,0.2-0.2c0.1-0.3,0.4-0.4,0.6-0.3s0.4,0.4,0.3,0.6c-0.2,0.7-0.9,1.1-1.6,1.1c-0.9,0-1.5-0.8-2.5-1.1
		c0,0.4-0.1,0.8-0.3,1.1c0.3,0.1,0.5,0.1,0.8,0c0.3,0,0.5,0.2,0.5,0.5c0,0.3-0.2,0.5-0.5,0.5c-0.3,0-0.4,0-0.6,0
		c0.6,0.5,0.5,1.1,0.5,1.8c0,0.5,0.1,0.7,0.6,0.9C35.9,38.1,36.9,38,37.7,37.8z M30.7,53.7c0.5,1.8,1.4,3.6,2.9,4.7
		c0-13.2,0-12.6,0-12.7c0-0.1,0.1-0.2,0.2-0.3c0,0-0.1,0,6.3-4.8c-0.9-0.2-1.7-0.8-2.1-1.6l-7.3,5.6V53.7z M17.8,39.4h4.6v-1
		c-1.5-0.4-3.1-1.2-4.1-2.5C18,36.9,17.8,38,17.8,39.4z M17.6,34.9c-0.3-0.5-0.5-1.2-0.6-1.9c-1.8,1.6-2.2,4.5-2.2,6.9
		c0,2.4,0.5,5.3,2.2,6.9c0.1-0.7,0.3-1.3,0.6-1.9C16.5,42.1,16.5,37.7,17.6,34.9z M22.4,41.4v-1h-4.6c0,1.4,0.2,2.6,0.5,3.5
		C19.3,42.7,20.8,41.8,22.4,41.4z M25.3,51.3c-0.3-0.6-1-0.9-1.4-1.6c-1.1-1.5-0.1-2.6,1-2.4c0.2,0,0.3,0.1,0.5,0.1v-5.5
		c0-0.1,0-0.2,0.1-0.3c0-0.1-0.1,0.1,1.8-1.7c-2-1.7-1.8-1.6-1.8-1.6c-0.1-0.1-0.1-0.1-0.1-0.2c0-0.1,0,0.2,0-3h-1.9v16.4
		c0,0.3-0.2,0.5-0.5,0.5c-0.3,0-0.5-0.2-0.5-0.5v-0.7c-0.4,0.1-0.9,0.2-1.1,0.5c-0.2,0.3,0,0.5,0.3,0.7c0.1,0,0.2,0.1,0.4,0.1
		c0.5,0.1,1.3,0.2,1.9,0.2c0.3,0,0.5,0.2,0.5,0.5c0,0.3-0.2,0.5-0.5,0.5c-0.7,0-2.1-0.1-2.8-0.5c-0.1,0.4,0.2,0.7,0.5,0.9
		c0.1,0,0.2,0.1,0.4,0.1c0.5,0.1,1.3,0.2,1.9,0.2c0.3,0,0.5,0.2,0.5,0.5c0,0.3-0.2,0.5-0.5,0.5c-0.6,0-1.5-0.1-2.1-0.2
		c-0.7-0.2-0.7-0.3-0.7-0.2c0,0.3,0.2,0.6,0.5,0.8c0.4,0.3,1.8,0.4,2.3,0.4c0.3,0,0.5,0.2,0.5,0.5c0,0.3-0.2,0.5-0.5,0.5
		c-0.6,0-1.8-0.2-2.5-0.4c0,0.2,0,0.4,0.1,0.5c0,0.1,0.2,0.2,0.6,0.4c0.4,0.1,1,0.3,1.8,0.3c0.3,0,0.5,0.2,0.5,0.5
		c0,0.3-0.2,0.5-0.5,0.5c-0.2,0-0.4,0-0.5,0V76h1.9V51.3z M26.2,50.9c0.1,0.1,0.1,0.2,0.1,0.3v6.1l3.4-3.4c-0.9-2.4-2.4-5.2-5-5.6
		l0,0c-0.2,0-0.3,0.1-0.3,0.3c0,0.2,0.2,0.4,0.3,0.6C25,49.7,25.7,50.1,26.2,50.9z M26.3,74.9c2.6-3.3,6.8-5.3,10.9-6.3
		c-2.3-2.5-3.4-5.7-3.5-9.1c-1.8-1-2.9-2.8-3.6-4.7l-3.8,3.8C26.3,75.6,26.2,74.6,26.3,74.9z M28.3,79.3c3-4.2,8.8-6.6,13.9-7.3
		c-1.5-0.6-3-1.5-4.2-2.6c-4.3,1-9,3.1-11.5,6.8C26.8,77.4,27.4,78.4,28.3,79.3z M34.5,80c0.7-1.2,2-1.7,3.3-1.5
		c0.4-0.4,0.8-0.7,1.3-0.9l6.5-4.9c-0.1,0-0.3,0-0.4,0C39.4,72.9,32.2,75.3,29,80c0.9,0.8,2,1.5,3.3,2.1
		C32.6,81.1,33.4,80.2,34.5,80z M36.4,81.8c0-0.8,0.3-1.7,0.7-2.4c-1.3,0-2,1.1-2,2.2c0,4.4,0.7,10.3,4.7,12.3
		C36.9,91,36.4,85.9,36.4,81.8z M36.5,92.3c-2-2.9-2.5-7.2-2.5-10.7c0-0.1,0-0.3,0-0.4c-0.6,0.4-1,1.2-1,1.9
		C33.1,86.3,33.9,90.5,36.5,92.3z M35.4,98.5l2.5-4.3c-1.1-0.6-2-1.1-2.9-1.8L31.8,95C32.9,96.4,34.1,97.6,35.4,98.5z M42.5,95.8
		c-1.3-0.3-2.5-0.7-3.8-1.2L36.2,99c1.9,1.2,3.9,1.8,5.9,1.9L42.5,95.8z M44.9,95.2c0.5,0,0.9,0,1.4,0c0.5-0.1,0.7-0.4,0.7-0.8
		c0-0.3-0.3-0.4-0.6-0.4c-3.5,0-5.8-1.4-6.8-4.7c-0.7-2.3-0.7-5.3-0.7-7.7c0-1.3,1.3-2.1,2.3-1.6c0.2,0.1,0.3,0.4,0.2,0.7
		c-0.1,0.2-0.4,0.3-0.7,0.2c-0.3-0.2-0.9,0.1-0.9,0.8c0,0.2,0.1,0.3,0.2,0.4c0.1,0.1,0.3,0.2,0.6,0.2c1.7,0,2.5-2.2,0.8-3.4
		c-1.9-1.3-4.2,1-4.2,3.1c0,3.3,0.4,7.6,2.2,10.4C40.8,94,42.6,95,44.9,95.2z M46.9,96.1c-0.2,0-0.3,0-0.5,0c-0.1,0-0.3,0-0.4,0
		c-0.8,0-1.7-0.1-2.5-0.2l-0.4,5c1.6,0,3.2-0.3,5-0.9L46.9,96.1z M43.4,80.2c0,0.5-0.1,0.9-0.2,1.3c-0.6,1.3-2.1,1.8-3.3,1.4
		c0.1,5.7,0.6,10,6.2,10.1c0.1-0.1,0.1-0.2,0.2-0.3c0.1-0.2,0.2-0.7,0.1-0.9c-0.3-0.6-2.7,0.2-3.8-1.2c-0.2-0.2-0.1-0.5,0.1-0.7
		s0.5-0.1,0.7,0.1c0.7,0.9,2.4,0.4,3.3,0.8c-0.2-0.6-0.6-1.2-0.2-2.2c0.3-1,0.8-1.6,1.3-2.4c-1.3-0.4-1.6-0.4-2.3-0.9
		c-0.6-0.4-1.1-0.8-1.6-0.3c-0.1,0.1-0.1,0.2-0.2,0.2c-0.1,0.3-0.4,0.4-0.6,0.3c-0.3-0.1-0.4-0.4-0.3-0.6c0.2-0.7,0.9-1.1,1.6-1.1
		c0.9,0,1.5,0.8,2.5,1.1c0-0.4,0.1-0.8,0.3-1.1c-0.3-0.1-0.5-0.1-0.8,0c-0.3,0-0.5-0.2-0.5-0.5c0-0.3,0.2-0.5,0.5-0.5
		c0.3,0,0.4,0,0.6,0c-0.6-0.5-0.5-1.1-0.5-1.8c0-0.5-0.1-0.7-0.6-0.9C45.2,79.9,44.2,80,43.4,80.2z M50.4,64.3
		c-0.5-1.8-1.4-3.6-2.9-4.7c0,13.3,0,12.6,0,12.7c0,0.1-0.1,0.2-0.2,0.3c0,0,0.1,0-6.3,4.8c0.9,0.2,1.7,0.8,2.1,1.6l7.3-5.6V64.3z
		 M54.8,59.3c0-16.9,0-15.9,0-16.2c-2.6,3.3-6.8,5.3-10.9,6.3c2.3,2.5,3.4,5.7,3.5,9.1c1.8,1,2.9,2.8,3.6,4.7L54.8,59.3z M56.4,69.7
		L56.4,69.7c0.2,0,0.3-0.1,0.3-0.3c0-0.2-0.2-0.4-0.3-0.6c-0.4-0.6-1.1-1-1.5-1.7c-0.1-0.1-0.1-0.2-0.1-0.3v-6.1l-3.4,3.4
		C52.3,66.5,53.9,69.3,56.4,69.7z M58.7,66.5v0.7c0.2,0,0.4-0.1,0.6-0.2c0.6-0.3,0.8-0.7,0.2-1.1c-0.4-0.3-1.8-0.3-2.3-0.3
		c-0.3,0-0.5-0.2-0.5-0.5c0-0.3,0.2-0.5,0.5-0.5c0.8,0,2.1,0.1,2.8,0.5c0.1-0.4-0.2-0.7-0.5-0.9c-0.4-0.3-1.8-0.3-2.3-0.3
		c-0.3,0-0.5-0.2-0.5-0.5c0-0.3,0.2-0.5,0.5-0.5c0.8,0,2.2,0.1,2.8,0.5c0-0.3-0.2-0.6-0.5-0.8c-0.4-0.3-1.7-0.4-2.3-0.4
		c-0.3,0-0.5-0.2-0.5-0.5c0-0.3,0.2-0.5,0.5-0.5c0.7,0,1.8,0.2,2.5,0.4c0-0.2,0-0.4-0.1-0.5c0-0.1-0.2-0.2-0.6-0.4
		c-0.4-0.1-1-0.3-1.8-0.3c-0.3,0-0.5-0.2-0.5-0.5c0-0.3,0.2-0.5,0.5-0.5c0.2,0,0.4,0,0.5,0V42h-1.9v24.6c0.4,0.7,1.4,1.2,1.8,2.1
		c0.5,1.1-0.3,1.9-1.1,1.9c-0.2,0-0.5-0.1-0.7-0.1c0,5.8,0,5.5,0,5.6c0,0.1,0,0.1-0.1,0.2c0,0.1-0.1,0.1-1.9,1.7
		c1.8,1.6,1.8,1.6,1.9,1.7c0,0,0.1,0.1,0.1,0.2c0,0.1,0-0.1,0,3h1.9V66.5c0-0.3,0.2-0.5,0.5-0.5C58.5,66,58.7,66.3,58.7,66.5z
		 M63.3,78.5h-4.6v1c1.5,0.4,3.1,1.2,4.1,2.5C63.1,81.1,63.3,79.9,63.3,78.5z M63.3,77.5c0-1.4-0.2-2.6-0.5-3.5
		c-1,1.2-2.5,2.1-4.1,2.5v1H63.3z M66.2,78c0-2.4-0.5-5.3-2.2-6.9c-0.1,0.7-0.3,1.3-0.6,1.9c1.1,2.8,1.1,7.3,0,10.1
		c0.3,0.5,0.5,1.2,0.6,1.9C65.8,83.4,66.2,80.4,66.2,78z"/>
	<g>
		<path fill="#EA1B4C" d="M12.6,5h2v11.4c0,3.2-1.3,5.6-4.4,5.6c-2.7,0-4.4-2-4.4-4.7V16h2v1.3c0,1.8,1,2.7,2.4,2.7
			c1.5,0,2.4-1,2.4-3.1V5z"/>
	</g>
	<g>
		<path fill="#EA1B4C" d="M68.5,112.9h-2v-11.4c0-3.2,1.3-5.6,4.4-5.6c2.7,0,4.4,2,4.4,4.7v1.3h-2v-1.3c0-1.8-1-2.7-2.4-2.7
			c-1.5,0-2.4,1-2.4,3.1V112.9z"/>
	</g>
</g>
</svg>
