<?xml version="1.0" encoding="utf-8"?>
<!-- Generator: Adobe Illustrator 22.1.0, SVG Export Plug-In . SVG Version: 6.00 Build 0)  -->
<svg version="1.1" id="Layer_1" xmlns="http://www.w3.org/2000/svg" xmlns:xlink="http://www.w3.org/1999/xlink" x="0px" y="0px"
	 viewBox="0 0 81.1 117.9" enable-background="new 0 0 81.1 117.9" xml:space="preserve">
<g>
	<path fill="#F2F6F9" d="M75.1,117.9H6c-3.3,0-6-2.7-6-6V6c0-3.3,2.7-6,6-6h69.1c3.3,0,6,2.7,6,6v105.9
		C81.1,115.3,78.4,117.9,75.1,117.9z"/>
	<g>
		<g>
			<path fill="#313132" d="M8.6,27.3c0,0.3,0.1,0.5,0.2,0.7c-0.8,0-1.5,0.7-1.5,1.6c0,0.9,0.7,1.6,1.6,1.6c0.6,0,1.1-0.3,1.3-0.7
				v-4.8C9.3,25.7,8.6,26.4,8.6,27.3z"/>
		</g>
		<g>
			<path fill="#1A1818" d="M11.6,28c0.1-0.2,0.2-0.5,0.2-0.7c0-0.9-0.7-1.6-1.6-1.6v4.8c0.3,0.4,0.8,0.7,1.3,0.7
				c0.9,0,1.6-0.7,1.6-1.6C13.1,28.8,12.4,28.1,11.6,28z"/>
		</g>
		<g>
			<polygon fill="#313132" points="8.5,32.4 10.2,32.4 10.2,31.2 			"/>
		</g>
		<g>
			<polygon fill="#1A1818" points="10.2,31.2 10.2,32.4 11.9,32.4 			"/>
		</g>
	</g>
	<g>
		<g>
			<g>
				<path fill="#313132" d="M72.5,90.6c0-0.3-0.1-0.5-0.2-0.7c0.8,0,1.5-0.7,1.5-1.6c0-0.9-0.7-1.6-1.6-1.6c-0.6,0-1.1,0.3-1.3,0.7
					v4.8C71.8,92.2,72.5,91.5,72.5,90.6z"/>
			</g>
		</g>
		<g>
			<g>
				<path fill="#1A1818" d="M69.5,89.9c-0.1,0.2-0.2,0.5-0.2,0.7c0,0.9,0.7,1.6,1.6,1.6v-4.8c-0.3-0.4-0.8-0.7-1.3-0.7
					c-0.9,0-1.6,0.7-1.6,1.6C68,89.2,68.6,89.9,69.5,89.9z"/>
			</g>
		</g>
		<g>
			<g>
				<polygon fill="#313132" points="72.6,85.6 70.9,85.6 70.9,86.7 				"/>
			</g>
		</g>
		<g>
			<g>
				<polygon fill="#1A1818" points="70.9,86.7 70.9,85.6 69.2,85.6 				"/>
			</g>
		</g>
	</g>
	<path id="Line_49_" fill="#1A1818" d="M36.9,28.6c0,0.4,0,0.4,0,0.7c0,0.3-0.2,0.5-0.5,0.5c-0.3,0-0.5-0.2-0.5-0.5
		c0-0.4,0-0.4,0-0.7c0-0.3,0.2-0.5,0.5-0.5C36.7,28.1,36.9,28.3,36.9,28.6z M65.4,83.6c-0.8,1.2-1.5,1.8-1.6,1.8l-0.6,0L61,83.8
		l0-0.8c0.5-0.3,0.9-0.7,0.6-1.2c-0.4-0.8-1.9-1.5-2.6-1.3c-0.1,0.1-0.3,0.2-0.3,0.3c-0.1,0.3-0.1,0.2-0.1,4.1l-0.5,0.5h-2.9
		L54.8,85v-3.7c0-0.2,0-0.4-0.2-0.5c-0.4-0.4-1.3-0.4-1.8-0.2l-0.6-0.3c-0.8-2.1-0.8-2-0.8-2.1c0-0.1,0-0.2,0-0.3c0,0,0,0.1,0.8-2.1
		l0.6-0.3c0.5,0.2,1.3,0.2,1.7-0.1c0.1-0.1,0.2-0.3,0.2-0.6v-4.5c-0.6-0.3-1.1-0.7-1.6-1.2c-0.1,4-4.2,7.8-7.7,10
		c0.9,0.1,1.7,0.4,1.9,1.2c0.2,0.8-0.1,1.5,0.3,1.8c0.3,0.2,0.3,0.6,0,0.8c0.2,0,0.6,0.2,0.8,0.3c0.2,0.2,0.2,0.5,0,0.7
		c-0.1,0.1-0.3,0.1-0.5,0.5c-0.1,0.2-0.1,0.5-0.1,0.8l0.9,0.3l0.3,0.7c-0.7,1-1.3,1.7-1.6,2.7c-0.3,0.9,0.4,1.3,0.4,2.4
		c0,0.8-0.4,1.6-0.8,2.3c0.4,0.4,0.5,1,0.3,1.5l0.5,0.4l0.4,4.5l-0.2,0.4c-5.2,3.6-14.6,0.1-15.9-5.8l0.1-0.4l2.3-2.5
		c-0.4-0.5-0.7-1.1-0.9-1.7c-1.2-3.1,0-6.7,2.2-8.8c-1.3-0.4-3-1.1-4.6-2.1c-2.7-1.7-5.1-3.9-6.6-6.7c-1.2-0.2-2.1-1.2-2.1-2.4V58
		c-0.6-0.1-1.4-0.4-1.7-1c-0.3-0.5-0.3-1.1-0.1-1.6c-0.5-0.6-0.6-1.4-0.2-1.9c-0.3-0.6-0.2-1.2,0.1-1.7c-0.4-0.9,0.2-2.1,2-2.3V43
		c0-0.5-0.2-0.8-0.7-0.8c-1.1,0-2.8,1.2-2.2,2.1c0.1,0.1,0.3,0.3,0.6,0.4l0,0.8l-2.3,1.6l-0.6,0c0,0-0.8-0.6-1.6-1.8
		c-2-3.2-2-7.8,0-11c0.8-1.2,1.5-1.8,1.6-1.8l0.6,0l2.3,1.6l0,0.8c-0.3,0.2-0.5,0.3-0.6,0.4c-0.8,1.1,2.4,2.9,2.9,1.7
		c0.1-0.2,0.1-0.2,0.1-4.1l0.5-0.5h2.9l0.5,0.5v3.7c0,0.2,0,0.4,0.2,0.5c0.4,0.4,1.3,0.4,1.8,0.2l0.6,0.3c0.8,2.1,0.8,2,0.8,2.1
		c0,0.1,0,0.2,0,0.3c0,0,0-0.1-0.8,2.1l-0.6,0.3c-0.5-0.2-1.3-0.2-1.7,0.1c-0.1,0.1-0.2,0.3-0.2,0.6v4.5c0.6,0.3,1.1,0.7,1.6,1.2
		c0.1-4,4.2-7.8,7.7-10c-0.9-0.1-1.7-0.4-1.9-1.2c-0.2-0.7,0.1-1.5-0.3-1.8c-0.3-0.2-0.3-0.6,0-0.8c-0.2,0-0.5-0.2-0.7-0.2
		c-0.3-0.2-0.3-0.6,0-0.8c0.4-0.2,0.5-0.8,0.5-1.2l-0.9-0.3l-0.3-0.7c0.7-1,1.3-1.7,1.6-2.7c0.1-0.3,0.1-0.5,0-0.8
		c-0.2-0.8-0.9-1.8,0.4-3.9c-0.4-0.4-0.5-1-0.3-1.5l-0.5-0.4L33,17.9l0.2-0.4c5.2-3.6,14.6,0,15.9,5.8L49,23.6l-2.3,2.5
		c1.8,2.5,1.8,5.5,0.4,8.2c-0.5,0.9-1.1,1.7-1.7,2.3c2.7,0.8,6,2.7,8.2,4.9c1.1,1.1,2.2,2.4,3,3.9c1.2,0.2,2.1,1.2,2.1,2.4V60
		c0.6,0.1,1.4,0.4,1.7,1c0.3,0.5,0.3,1.1,0.1,1.6c0.5,0.6,0.6,1.3,0.2,1.9c0.3,0.6,0.2,1.2-0.1,1.7c0.4,0.9-0.2,2.1-2,2.3v6.5
		c0,0.3,0.1,0.4,0.1,0.6c0.4,0.7,2.2,0,2.7-0.9c0.3-0.5,0.3-0.9-0.5-1.4l0-0.8l2.3-1.6l0.6,0c0,0,0.8,0.6,1.6,1.8
		C67.4,75.8,67.4,80.4,65.4,83.6z M26.3,39.4h2.2l-0.4-1c-0.6,0.1-1.3,0.1-1.8-0.2V39.4z M26.3,41.5c0.5-0.2,1.1-0.3,1.8-0.2l0.4-1
		h-2.2V41.5z M54.8,78.6h-2.2l0.4,1c0.6-0.1,1.3-0.1,1.8,0.2V78.6z M54.8,76.5c-0.5,0.2-1.1,0.3-1.8,0.2l-0.4,1h2.2V76.5z
		 M55.7,59.9c1.6,0,1.6,0,1.9,0v-12c0-0.7-0.4-1.2-1.1-1.4c-0.1,1.8-0.4,3.6-0.9,5.4V59.9z M36.8,66.8c0.6,0.8,1.2,1.6,2,2.3
		c9.3-4.3,16.8-13.2,16.9-23.2c-0.6-1-1.2-1.9-1.9-2.7C53.6,53.3,46.1,62.3,36.8,66.8z M51.7,59.9h3.1v-5.3
		C54,56.4,52.9,58.2,51.7,59.9z M47.4,57.2c0.9-1.1,1.6-2.2,2.3-3.4c-1.6-5.9-6.4-10.1-11.7-11.3c-0.9,0.8-2,1.7-3.4,2.6
		c2.3-0.1,4.7,0.7,6.7,1.9C44.7,49.1,47,52.6,47.4,57.2z M34.9,45.9c-1.9,0-3.7,0.6-4.8,2.3c-1.5,2.4-0.6,5.6,0.7,8.1
		c2.9-3.4,6.6-6.2,10.7-8.1C39.4,46.7,37,45.9,34.9,45.9z M45,52.3l-7.7,13.1c3.5-1.8,6.6-4.3,9.2-7.2C46.4,56,45.9,54,45,52.3z
		 M43.8,52.5c-3.5,1.8-6.6,4.3-9.2,7.2c0,2.3,0.6,4.3,1.4,5.9L43.8,52.5z M33.7,60.8c-0.9,1.1-1.6,2.2-2.3,3.4
		c1.6,5.9,6.4,10.1,11.7,11.3c0.9-0.8,2-1.7,3.4-2.6c-2.3,0.1-4.7-0.7-6.7-1.9C36.4,68.9,34.1,65.3,33.7,60.8z M50.9,69.7
		c1.5-2.4,0.6-5.6-0.7-8.1c-2.9,3.4-6.6,6.2-10.7,8.1c2.1,1.5,4.5,2.3,6.6,2.3C48.1,72,49.9,71.4,50.9,69.7z M45,37.5
		c-1.2,0.8-2.6,0.8-3.9-0.3c-0.3,1.7-1.1,3.2-2.3,4.4C44,43,48.5,47,50.4,52.5c1.6-3.3,2.5-6.8,2.4-10.5
		C50.4,39.9,47.3,38.2,45,37.5z M43.4,30c-0.2,1.4-0.5,3.5-0.2,4.8c0.1,0.3,0.2,0.6,0.4,0.8c1.5-4,2.4-9.6-1.4-11.6
		c-0.4-0.2-0.7-0.3-1.1-0.5C42.9,25,43.7,27.3,43.4,30z M36.9,22.6c-0.5,0-0.7,0-0.9,0c-0.4,0-0.9,0.2-1.1,0.5
		c-0.1,0.2,0,0.4,0.1,0.5c0.6,0.6,1.6-0.2,4.8,2.1c3,2.1-1,7.9,1.8,10.6c0.6,0.6,1.4,1,2.2,0.7c-0.8-0.5-1.4-1.1-1.6-2.1
		c-0.3-1.4,0-3.5,0.2-5c0.3-1.8-0.1-3.5-1.1-4.9C40.2,23.6,38.5,22.8,36.9,22.6z M46.2,25.1l1.9-2c-0.4-1.4-1.2-2.5-2.3-3.5
		C45.2,21.3,45.6,23.5,46.2,25.1z M45.2,25.9c1.3,3,0.4,7.3-0.8,10.3c1.6-1.3,2.7-3.6,2.7-5.8c0-1.6-0.6-3.1-1.7-4.3
		C45.3,26,45.2,25.9,45.2,25.9z M45,24.5c-0.4-1.4-0.6-2.9-0.4-4.3l-3.2,2.3c0.9,0.3,1.2,0.5,1.2,0.5C43,23.3,43.8,23.7,45,24.5z
		 M38.8,17l1.9,5l4.1-3C43,17.7,40.9,17.1,38.8,17z M35.6,21.6c0.7,0,0.8,0,1.3,0c0.9,0,1.9,0.2,2.8,0.4l-1.4-3.8
		C37.7,19.5,36.6,20.7,35.6,21.6z M34.3,21.4c1.4-1.1,3-2.7,3.3-4.4c-1.3,0.1-2.5,0.4-3.6,1.1L34.3,21.4z M36.2,37.8
		c1.1,0,2.7-0.6,4-1.8c-1.7-3.2,1.2-8-0.9-9.5c-2.5-1.8-3.5-1.5-4.2-1.8c-0.1,0.1-0.2,0.3-0.2,0.4c-0.1,0.2-0.2,0.7-0.1,0.9
		c0.3,0.6,2.7-0.2,3.8,1.2c0.2,0.2,0.1,0.5-0.1,0.7c-0.2,0.2-0.5,0.1-0.7-0.1c-0.7-0.9-2.4-0.4-3.3-0.8c0.2,0.6,0.6,1.2,0.2,2.2
		c-0.3,1-0.8,1.6-1.3,2.4c1.2,0.4,1.2,0.3,1.2,0.4c0,0,0.7,0.2,1.3,0.8c0.5,0.5,0.7,1.1,0.9,1.4c0,0,0.1-0.1,0.1-0.1
		c0.2-0.2,0.5-0.2,0.7,0s0.2,0.5,0,0.7c-0.1,0.1-0.2,0.2-0.4,0.3c-0.3,0.2-0.6,0.2-0.9,0c-0.7-0.4-0.7-1.8-2-2.2
		c0,0.4-0.1,0.8-0.3,1.1c0.3,0.1,0.5,0.1,0.8,0c0.3,0,0.5,0.2,0.5,0.5c0,0.3-0.2,0.5-0.5,0.5c-0.8,0.1-0.6-0.1-0.4,0.2
		c0.6,0.8,0,2,0.5,2.3C35.1,37.8,35.8,37.8,36.2,37.8z M28.9,48.5c0.5-1.3,1.5-2.3,2.7-2.9c2.3-1.3,4.1-2.6,5.5-3.7
		c1.5-1.3,2.7-2.8,3-4.7c-0.5,0.4-1,0.7-1.6,1c-1.8,0.9-3.5,2-5.1,3.3C31.4,43.3,29.1,45.8,28.9,48.5z M23.4,50.7h1.9V33.5h-1.9
		V50.7z M22.5,41.4v-1h-3.6v1c0,0.3-0.2,0.5-0.5,0.5c-0.3,0-0.5-0.2-0.5-0.5v-1h-1.5c-0.3,0-0.5-0.2-0.5-0.5c0-0.3,0.2-0.5,0.5-0.5
		h1.5v-1c0-0.3,0.2-0.5,0.5-0.5c0.3,0,0.5,0.2,0.5,0.5v1h3.6v-1c-1.9,0.8-5.4-1.9-3.5-3.8l-1.4-1c-3.3,3-3.2,9.5,0,12.5l1.4-1
		c-0.4-0.3-0.6-0.7-0.6-1.2C18.4,42.3,21,40.8,22.5,41.4z M23.9,57.1h6.2c-1-1.9-1.8-4.1-1.7-6.2c-0.5-0.9-1.2-1.7-2.1-2.3v2.5
		l-0.5,0.5h-2.9l-0.5-0.5v-0.7c-0.4,0.1-0.9,0.2-1.1,0.5c-0.2,0.3,0,0.5,0.3,0.7c0.1,0,0.2,0.1,0.4,0.1c0.5,0.1,1.3,0.2,1.9,0.2
		c0.3,0,0.5,0.2,0.5,0.5c0,0.3-0.2,0.5-0.5,0.5c-0.7,0-2.1-0.1-2.8-0.5c-0.1,0.2,0,0.4,0.2,0.6c0.3,0.3,0.7,0.5,1.1,0.5
		c0.3,0.1,0.7,0.1,1,0.1c0.3,0,0.5,0.2,0.5,0.5c0,0.3-0.2,0.5-0.5,0.5c-0.7,0-1.7-0.1-2.3-0.5c0,0.2,0,0.3,0.2,0.5
		c0.3,0.4,1.2,0.7,1.6,0.7c0.3,0,0.5,0.2,0.5,0.5c0,0.3-0.2,0.5-0.5,0.5c-0.5,0-1.1-0.2-1.5-0.4c0,0.1,0,0.2,0,0.3
		c0,0.1,0.1,0.2,0.2,0.3C22.3,57,23.2,57.1,23.9,57.1z M26.3,58.1v5.3c0.8-1.9,1.8-3.7,3.1-5.3H26.3z M25.4,58.1c-1.6,0-1.6,0-1.9,0
		v12c0,0.7,0.4,1.2,1.1,1.4c0.1-1.8,0.4-3.6,0.9-5.4V58.1z M44.3,51.2c-0.6-0.8-1.2-1.6-2-2.3C33,53.2,25.5,62.1,25.5,72.1
		c0.6,1,1.2,1.9,1.9,2.7C27.5,64.6,35.1,55.6,44.3,51.2z M36.1,80.4c1.2-0.8,2.6-0.8,3.9,0.3c0.3-1.7,1.1-3.2,2.3-4.4
		c-5.2-1.4-9.7-5.3-11.6-10.9c-1.6,3.3-2.5,6.8-2.4,10.5C30.7,78.1,33.8,79.7,36.1,80.4z M37.7,87.9c0.2-1.4,0.5-3.5,0.2-4.8
		c-0.1-0.3-0.2-0.6-0.4-0.8c-1.5,4-2.4,9.6,1.4,11.6c0.4,0.2,0.7,0.3,1.1,0.5C38.2,92.9,37.3,90.6,37.7,87.9z M44.2,95.4
		c0.5,0,0.7,0,0.9,0c0.4,0,0.9-0.2,1.1-0.5c0.1-0.2,0-0.4-0.1-0.5c-0.6-0.6-1.6,0.2-4.8-2.1c-3.1-2.2,1-7.9-1.8-10.6
		c-0.6-0.6-1.4-1-2.2-0.7c0.8,0.5,1.4,1.1,1.6,2.1c0.3,1.4,0,3.5-0.2,5c-0.3,1.8,0.1,3.5,1.1,4.9C40.9,94.3,42.6,95.2,44.2,95.4z
		 M34.8,92.8l-1.9,2c0.4,1.4,1.2,2.5,2.3,3.5C35.9,96.7,35.4,94.4,34.8,92.8z M35.9,92.1c-1.3-3-0.4-7.3,0.8-10.3
		c-1.6,1.3-2.7,3.6-2.7,5.8c0,1.6,0.6,3.1,1.7,4.3C35.8,92,35.9,92,35.9,92.1z M36.1,93.4c0.4,1.4,0.6,2.9,0.4,4.3l3.2-2.3
		c-0.9-0.3-1.2-0.5-1.2-0.5C38.1,94.7,37.2,94.3,36.1,93.4z M42.3,101l-1.9-5l-4.1,3C38.1,100.2,40.3,100.9,42.3,101z M45.5,96.3
		c-0.7,0-0.9,0-1.3,0c-0.9,0-1.9-0.2-2.8-0.4l1.4,3.8C43.4,98.4,44.5,97.3,45.5,96.3z M46.8,96.6c-1.4,1.1-3,2.7-3.3,4.4
		c1.3-0.1,2.5-0.4,3.6-1.1L46.8,96.6z M44.9,80.1c-1.1,0-2.7,0.6-4,1.8c1.7,3.2-1.2,8,0.9,9.5c2.5,1.8,3.5,1.5,4.2,1.8
		c0.1-0.1,0.2-0.3,0.2-0.4c0.1-0.2,0.2-0.7,0.1-0.9c-0.3-0.6-2.7,0.2-3.8-1.2c-0.2-0.2-0.1-0.5,0.1-0.7s0.5-0.1,0.7,0.1
		c0.7,0.9,2.3,0.4,3.3,0.8c-0.2-0.6-0.6-1.2-0.2-2.2c0.3-1,0.8-1.6,1.3-2.4C46.6,86,46.6,86,46.6,86c0,0-0.7-0.2-1.3-0.8
		c-0.5-0.5-0.7-1.1-0.9-1.4c0,0-0.1,0.1-0.1,0.1c-0.2,0.2-0.5,0.2-0.7,0c-0.2-0.2-0.2-0.5,0-0.7c0.1-0.1,0.2-0.2,0.4-0.3
		c0.3-0.2,0.6-0.2,0.9,0c0.7,0.4,0.7,1.8,2,2.2c0-0.4,0.1-0.8,0.3-1.1c-0.3,0-0.5-0.1-0.8,0c-0.3,0-0.5-0.2-0.5-0.4
		c0-0.3,0.2-0.5,0.4-0.5c0.8-0.1,0.6,0.1,0.4-0.2c-0.6-0.8,0-2-0.5-2.3C46,80.2,45.3,80.1,44.9,80.1z M52.2,69.4
		c-0.5,1.3-1.5,2.3-2.7,2.9c-2.3,1.3-4.1,2.6-5.5,3.7c-1.5,1.3-2.7,2.8-3,4.7c0.5-0.4,1-0.7,1.6-1c1.9-1,3.6-2.1,5.1-3.3
		C49.7,74.7,51.9,72.1,52.2,69.4z M57.7,67.3h-1.9v17.2h1.9V67.3z M58.6,66.8v0.7c0.2,0,0.4-0.1,0.6-0.2c0.6-0.3,0.8-0.7,0.2-1.1
		c-0.4-0.3-1.8-0.3-2.3-0.3c-0.3,0-0.5-0.2-0.5-0.5c0-0.3,0.2-0.5,0.5-0.5c0.7,0,2.1,0.1,2.8,0.5c0.1-0.4-0.2-0.7-0.5-0.9
		c-0.4-0.3-1.3-0.3-1.8-0.3c-0.3,0-0.5-0.2-0.5-0.5c0-0.3,0.2-0.5,0.5-0.5c0.7,0,1.7,0.1,2.3,0.5c0-0.3-0.2-0.6-0.5-0.8
		c-0.4-0.3-1-0.4-1.3-0.4c-0.3,0-0.5-0.2-0.5-0.5c0-0.3,0.2-0.5,0.5-0.5c0.5,0,1.1,0.2,1.5,0.4c0-0.2,0-0.3-0.1-0.4
		c-0.1-0.2-0.4-0.3-0.6-0.4c-0.4-0.1-0.9-0.3-1.8-0.3H51c1,1.9,1.8,4.1,1.7,6.2c0.5,0.9,1.2,1.7,2.1,2.3v-2.5l0.5-0.5h2.9L58.6,66.8
		z M63.5,71.9l-1.4,1c2,1.9-1.5,4.6-3.5,3.8v1h3.6v-1c0-0.3,0.2-0.5,0.5-0.5c0.3,0,0.5,0.2,0.5,0.5v1h1.5c0.3,0,0.5,0.2,0.5,0.5
		c0,0.3-0.2,0.5-0.5,0.5h-1.5v1c0,0.3-0.2,0.5-0.5,0.5c-0.3,0-0.5-0.2-0.5-0.5v-1h-3.6v1c1.9-0.8,5.4,1.9,3.5,3.8l1.4,1
		C66.8,81.3,66.8,74.9,63.5,71.9z M55.1,46.5l-1-0.2l-0.2,1l1,0.2L55.1,46.5z M40.9,65.7l0.5,0.8l0.8-0.5l-0.5-0.8
		C41.2,65.5,41.4,65.3,40.9,65.7z M43.3,64l0.6,0.8l0.8-0.6l-0.6-0.8C43.6,63.8,43.8,63.6,43.3,64z M46.2,62.8l0.7-0.7l-0.7-0.7
		c-0.4,0.4-0.3,0.3-0.7,0.7L46.2,62.8z M52.4,55l-0.8-0.5c-0.3,0.5-0.2,0.3-0.5,0.9l0.8,0.5L52.4,55z M53.6,52.3l-0.9-0.4
		c-0.2,0.6-0.1,0.4-0.4,0.9l0.9,0.4L53.6,52.3z M49,60l-0.7-0.6c-0.4,0.5-0.3,0.3-0.6,0.7l0.7,0.6L49,60z M50.8,57.6L50,57
		c-0.4,0.5-0.2,0.3-0.6,0.8l0.8,0.6L50.8,57.6z M54.5,49.4l-0.9-0.3c-0.2,0.6-0.1,0.4-0.3,0.9l0.9,0.3L54.5,49.4z M38.4,67.1
		l0.5,0.8l0.8-0.5l-0.5-0.8L38.4,67.1z M44.7,89.9c0.3,0,0.5-0.2,0.5-0.5c0-0.4,0-0.4,0-0.7c0-0.3-0.2-0.5-0.5-0.5
		c-0.3,0-0.5,0.2-0.5,0.5c0,0.4,0,0.4,0,0.7C44.2,89.6,44.4,89.9,44.7,89.9z M26.1,71.5l1,0.1l0.1-1l-1-0.1L26.1,71.5z M28.7,62.9
		l0.8,0.5c0.2-0.3,0.3-0.5,0.5-0.9l-0.8-0.5L28.7,62.9z M30.3,60.3l0.8,0.6c0.4-0.5,0.2-0.3,0.6-0.8l-0.8-0.6L30.3,60.3z M26.6,68.5
		l0.9,0.2c0.1-0.5,0.1-0.4,0.3-0.9l-0.9-0.2L26.6,68.5z M27.5,65.7l0.9,0.4c0.2-0.6,0.1-0.4,0.4-0.9l-0.9-0.4L27.5,65.7z M40.2,52.3
		l-0.5-0.8L38.8,52l0.5,0.8C39.9,52.5,39.7,52.6,40.2,52.3z M37.8,54l-0.6-0.8l-0.8,0.6l0.6,0.8C37.5,54.2,37.3,54.3,37.8,54z
		 M32.1,58l0.7,0.6c0.4-0.4,0.3-0.3,0.6-0.7l-0.7-0.6L32.1,58z M34.9,55.1l-0.7,0.7l0.7,0.7c0.4-0.4,0.3-0.3,0.7-0.7L34.9,55.1z
		 M42.7,50.9L42.3,50l-0.8,0.5l0.5,0.8L42.7,50.9z"/>
	<g>
		<path fill="#1A1818" d="M12.6,5h2v11.4c0,3.2-1.3,5.6-4.4,5.6c-2.7,0-4.4-2-4.4-4.7V16h2v1.3c0,1.8,1,2.7,2.4,2.7
			c1.5,0,2.4-1,2.4-3.1V5z"/>
	</g>
	<g>
		<path fill="#1A1818" d="M68.5,112.9h-2v-11.4c0-3.2,1.3-5.6,4.4-5.6c2.7,0,4.4,2,4.4,4.7v1.3h-2v-1.3c0-1.8-1-2.7-2.4-2.7
			c-1.5,0-2.4,1-2.4,3.1V112.9z"/>
	</g>
</g>
</svg>
